<svg width="36" height="47" viewBox="0 0 36 47" fill="none" xmlns="http://www.w3.org/2000/svg">
<g clip-path="url(#clip0_2_7371)">
<path d="M28.6877 0.219543L18.7155 9.87519L28.6877 3.14286V0.219543Z" fill="white"/>
<path d="M32.2023 2.20599L18.7155 11.2319L32.2023 5.27778V2.20599Z" fill="white"/>
<path d="M34.8015 19.4284C34.2149 19.4284 33.6789 19.1212 33.3704 18.6298H28.3944L25.2895 21.8244L26.5588 22.6128L26.6599 25.7358L26.933 25.6386L29.4412 27.5891V29.98H33.3755C33.6839 29.4936 34.22 29.1813 34.8066 29.1813C35.2769 29.1813 35.6966 29.3759 36.0051 29.6831V18.9165C35.6915 19.2236 35.2718 19.4131 34.8066 19.4131L34.8015 19.4284Z" fill="white"/>
<path d="M22.4577 20.2885L22.5234 20.1145L23.6612 20.821L27.641 16.7918H33.3755C33.6839 16.3055 34.22 15.9932 34.8066 15.9932C35.2718 15.9932 35.6915 16.1826 36 16.4898V4.83746L18.7206 12.3941V19.2697L22.4678 20.2937L22.4577 20.2885Z" fill="white"/>
<path d="M28.4956 32.7447V34.0809L33.4311 31.9204C33.4109 31.8897 33.3906 31.8641 33.3704 31.8334H29.2794V31.3521L28.4956 32.7447Z" fill="white"/>
<path d="M7.31732 0.219543V3.14286L17.2895 9.87519L7.31732 0.219543Z" fill="white"/>
<path d="M3.80278 2.20599V5.27778L17.2895 11.2319L3.80278 2.20599Z" fill="white"/>
<path d="M1.19849 15.9932C1.78509 15.9932 2.32112 16.3003 2.62959 16.7918H8.3641L12.3793 20.8568L13.5727 20.1145L13.6384 20.2886L17.2895 19.2902V12.3889L0.0151749 4.83746V16.4898C0.313531 16.1826 0.73831 15.9932 1.20354 15.9932H1.19849Z" fill="white"/>
<path d="M6.72061 31.1883V31.8334H2.62958C2.60936 31.8641 2.58913 31.8948 2.5689 31.9204L7.59545 34.1218V32.7447L6.72061 31.1832V31.1883Z" fill="white"/>
<path d="M1.19848 29.1967C1.78508 29.1967 2.32111 29.5039 2.62958 29.9954H6.65992V27.6045L9.16814 25.6539L9.44121 25.7512L9.54235 22.6282L10.7509 21.8756L7.61062 18.64H2.62958C2.32111 19.1264 1.78508 19.4387 1.19848 19.4387C0.73325 19.4387 0.313529 19.2493 0.00505829 18.9421V29.7087C0.308472 29.3964 0.73325 29.207 1.19848 29.207V29.1967Z" fill="white"/>
<path d="M28.1871 18.1229H33.6839C33.8508 18.5888 34.2908 18.9216 34.8066 18.9216C35.464 18.9216 36 18.3789 36 17.7133C36 17.0478 35.464 16.5051 34.8066 16.5051C34.2908 16.5051 33.8508 16.8379 33.6839 17.3038H27.8483L24.3287 20.867L25.0468 21.3534L28.182 18.128L28.1871 18.1229ZM34.8066 17.3243C35.019 17.3243 35.1858 17.4983 35.1858 17.7082C35.1858 17.9181 35.0139 18.0922 34.8066 18.0922C34.5992 18.0922 34.4273 17.9181 34.4273 17.7082C34.4273 17.4983 34.5992 17.3243 34.8066 17.3243ZM34.8066 29.7036C34.2908 29.7036 33.8508 30.0363 33.6839 30.5022H29.7851V31.3265H33.6839C33.8508 31.7924 34.2908 32.1251 34.8066 32.1251C35.464 32.1251 36 31.5825 36 30.9169C36 30.2514 35.464 29.7087 34.8066 29.7087V29.7036ZM34.8066 31.2958C34.5942 31.2958 34.4273 31.1217 34.4273 30.9118C34.4273 30.7019 34.5992 30.5278 34.8066 30.5278C35.0139 30.5278 35.1858 30.7019 35.1858 30.9118C35.1858 31.1217 35.0139 31.2958 34.8066 31.2958ZM34.8066 43.8031C34.2908 43.8031 33.8508 44.1358 33.6839 44.6017H28.4298L25.6435 41.7808L25.067 42.3644L28.091 45.426H33.6839C33.8508 45.8919 34.2908 46.2246 34.8066 46.2246C35.464 46.2246 36 45.682 36 45.0164C36 44.3509 35.464 43.8082 34.8066 43.8082V43.8031ZM34.8066 45.3953C34.5942 45.3953 34.4273 45.2212 34.4273 45.0113C34.4273 44.8014 34.5992 44.6273 34.8066 44.6273C35.0139 44.6273 35.1858 44.8014 35.1858 45.0113C35.1858 45.2212 35.0139 45.3953 34.8066 45.3953ZM7.58028 44.5966H2.32111C2.15424 44.1307 1.71429 43.7979 1.19848 43.7979C0.541089 43.7979 0.00505829 44.3406 0.00505829 45.0062C0.00505829 45.6717 0.541089 46.2144 1.19848 46.2144C1.71429 46.2144 2.15424 45.8816 2.32111 45.4157H7.91403L10.9381 42.3542L10.3616 41.7706L7.57522 44.5915L7.58028 44.5966ZM1.20354 45.3953C0.991152 45.3953 0.824274 45.2212 0.824274 45.0113C0.824274 44.8014 0.996209 44.6273 1.20354 44.6273C1.41087 44.6273 1.58281 44.8014 1.58281 45.0113C1.58281 45.2212 1.41087 45.3953 1.20354 45.3953ZM1.20354 18.9165C1.71934 18.9165 2.15929 18.5837 2.32617 18.1178H7.81795L10.9532 21.3432L11.6713 20.8568L8.15171 17.2935H2.32111C2.15424 16.8276 1.71429 16.4949 1.19848 16.4949C0.541089 16.5051 0.00505829 17.0478 0.00505829 17.7133C0.00505829 18.3789 0.541089 18.9216 1.19848 18.9216L1.20354 18.9165ZM1.20354 17.3243C1.41593 17.3243 1.58281 17.4983 1.58281 17.7082C1.58281 17.9181 1.41087 18.0922 1.20354 18.0922C0.996209 18.0922 0.824274 17.9181 0.824274 17.7082C0.824274 17.4983 0.996209 17.3243 1.20354 17.3243ZM1.20354 32.12C1.71934 32.12 2.15929 31.7873 2.32617 31.3214H6.22503V30.4971H2.32111C2.15424 30.0312 1.71429 29.6984 1.19848 29.6984C0.541089 29.7036 0.00505829 30.2462 0.00505829 30.9118C0.00505829 31.5773 0.541089 32.12 1.19848 32.12H1.20354ZM1.20354 30.5278C1.41593 30.5278 1.58281 30.7019 1.58281 30.9118C1.58281 31.1217 1.41087 31.2958 1.20354 31.2958C0.996209 31.2958 0.824274 31.1217 0.824274 30.9118C0.824274 30.7019 0.996209 30.5278 1.20354 30.5278Z" fill="#ACF780"/>
<path d="M26.5891 37.6083L27.9949 35.755V33.1594L24.885 33.4L28.0354 32.5348L28.9355 30.9374V27.8503L26.8369 26.2171L23.6359 27.3434L22.2807 29.7855L22.8571 26.7598L26.1492 25.6847L26.0632 22.9098L22.7813 20.8671L21.2187 25.0038L22.1037 20.7186L18.3363 19.6896V42.344L20.7029 43.2809H23.0746L26.5891 39.5589V37.6083Z" fill="white"/>
<path d="M20.4501 40.2296L22.7611 36.6202L20.4501 33.4L24.2073 36.2311L20.4501 40.2296Z" fill="white"/>
<path d="M14.8774 25.0038L13.3148 20.8671L10.0329 22.9098L9.9469 25.6847L13.2389 26.7598L13.8154 29.7855L12.4602 27.3434L9.25916 26.2171L7.16055 27.8503V30.9374L8.06068 32.5348L11.2111 33.4L8.10113 33.1594V35.755L9.50695 37.6083V39.5589L13.0215 43.2809H15.3932L17.7598 42.344V19.6896L13.9924 20.7186L14.8774 25.0038Z" fill="white"/>
<path d="M15.646 40.2296L11.8887 36.2311L15.646 33.4L13.335 36.6202L15.646 40.2296Z" fill="white"/>
</g>
<defs>
<clipPath id="clip0_2_7371">
<rect width="36" height="46" fill="white" transform="translate(0 0.219543)"/>
</clipPath>
</defs>
</svg>
