<svg width="50" height="41" viewBox="0 0 50 41" fill="none" xmlns="http://www.w3.org/2000/svg">
<g clip-path="url(#clip0_2_7336)">
<path d="M34.5004 22.9583L38.7927 21.7961L40.0109 19.648V15.4899L37.1557 13.2941L32.7968 14.8135L30.9504 18.1L31.7404 14.0276L36.2183 12.5796L36.0993 8.84542L31.6309 6.09714L29.5085 11.6604L30.7125 5.89233L25.5826 4.50629V35.004L28.7995 36.2615H32.0306L36.8179 31.2555V28.6263L38.7308 26.1305V22.6392L34.4956 22.9583H34.5004ZM28.4616 32.1557L31.6119 27.2927L28.4616 22.9583L33.582 26.7687L28.4616 32.1557Z" fill="white"/>
<path d="M11.6493 22.6392V26.1305L13.5622 28.6263V31.2555L18.3495 36.2615H21.5806L24.7975 35.004V4.50629L19.6676 5.89233L20.8716 11.6604L18.7492 6.09714L14.2808 8.84542L14.1618 12.5796L18.6397 14.0276L19.4297 18.1L17.5833 14.8135L13.2244 13.2941L10.3692 15.4899V19.648L11.5874 21.7961L15.8797 22.9583L11.6445 22.6392H11.6493ZM16.8029 26.7687L21.9232 22.9583L18.773 27.2927L21.9232 32.1557L16.8029 26.7687Z" fill="white"/>
<path d="M34.7193 6.74494L33.7437 6.08764L38.5357 1.29126H46.6778V2.40105H38.9926L34.7193 6.74494Z" fill="#ACF780"/>
<path d="M46.6778 19.0621H41.1673V20.1672H46.6778V19.0621Z" fill="#ACF780"/>
<path d="M46.6778 39.1479H38.8593L34.7478 35.0278L35.5282 34.2467L39.3209 38.0381H46.6778V39.1479Z" fill="#ACF780"/>
<path d="M48.0007 3.4727C47.1061 3.4727 46.3732 2.74396 46.3732 1.84374C46.3732 0.943528 47.1013 0.214783 48.0007 0.214783C48.9001 0.214783 49.6282 0.943528 49.6282 1.84374C49.6282 2.74396 48.9001 3.4727 48.0007 3.4727ZM48.0007 1.32457C47.7152 1.32457 47.482 1.55796 47.482 1.84374C47.482 2.12952 47.7152 2.36291 48.0007 2.36291C48.2862 2.36291 48.5194 2.12952 48.5194 1.84374C48.5194 1.55796 48.2862 1.32457 48.0007 1.32457Z" fill="#ACF780"/>
<path d="M48.0007 21.2389C47.1061 21.2389 46.3732 20.5101 46.3732 19.6099C46.3732 18.7097 47.1013 17.981 48.0007 17.981C48.9001 17.981 49.6282 18.7097 49.6282 19.6099C49.6282 20.5101 48.9001 21.2389 48.0007 21.2389ZM48.0007 19.0907C47.7152 19.0907 47.482 19.3241 47.482 19.6099C47.482 19.8957 47.7152 20.1291 48.0007 20.1291C48.2862 20.1291 48.5194 19.8957 48.5194 19.6099C48.5194 19.3241 48.2862 19.0907 48.0007 19.0907Z" fill="#ACF780"/>
<path d="M48.0007 40.2196C47.1061 40.2196 46.3732 39.4908 46.3732 38.5906C46.3732 37.6904 47.1013 36.9617 48.0007 36.9617C48.9001 36.9617 49.6282 37.6904 49.6282 38.5906C49.6282 39.4908 48.9001 40.2196 48.0007 40.2196ZM48.0007 38.0715C47.7152 38.0715 47.482 38.3048 47.482 38.5906C47.482 38.8764 47.7152 39.1098 48.0007 39.1098C48.2862 39.1098 48.5194 38.8764 48.5194 38.5906C48.5194 38.3048 48.2862 38.0715 48.0007 38.0715Z" fill="#ACF780"/>
<path d="M15.5323 6.74494L16.5126 6.08764L11.7206 1.29126H3.57855V2.40105H11.2638L15.5323 6.74494Z" fill="#ACF780"/>
<path d="M9.08909 19.0621H3.57855V20.1672H9.08909V19.0621Z" fill="#ACF780"/>
<path d="M3.57855 39.1479H11.3923L15.5085 35.0278L14.7281 34.2467L10.9355 38.0381H3.57855V39.1479Z" fill="#ACF780"/>
<path d="M0.628174 1.8485C0.628174 0.948288 1.35625 0.219543 2.25564 0.219543C3.15503 0.219543 3.8831 0.948288 3.8831 1.8485C3.8831 2.74872 3.15503 3.47746 2.25564 3.47746C1.35625 3.47746 0.628174 2.74395 0.628174 1.8485ZM1.73218 1.8485C1.73218 2.13428 1.96536 2.36767 2.25088 2.36767C2.5364 2.36767 2.76957 2.13428 2.76957 1.8485C2.76957 1.56272 2.5364 1.32933 2.25088 1.32933C1.96536 1.32933 1.73218 1.56272 1.73218 1.8485Z" fill="#ACF780"/>
<path d="M0.628174 19.6147C0.628174 18.7192 1.35625 17.9857 2.25564 17.9857C3.15503 17.9857 3.8831 18.7145 3.8831 19.6147C3.8831 20.5149 3.15503 21.2436 2.25564 21.2436C1.35625 21.2436 0.628174 20.5149 0.628174 19.6147ZM1.73218 19.6147C1.73218 19.9005 1.96536 20.1338 2.25088 20.1338C2.5364 20.1338 2.76957 19.9005 2.76957 19.6147C2.76957 19.3289 2.5364 19.0955 2.25088 19.0955C1.96536 19.0955 1.73218 19.3289 1.73218 19.6147Z" fill="#ACF780"/>
<path d="M0.628174 38.5954C0.628174 37.6999 1.35625 36.9664 2.25564 36.9664C3.15503 36.9664 3.8831 37.6952 3.8831 38.5954C3.8831 39.4956 3.15503 40.2243 2.25564 40.2243C1.35625 40.2243 0.628174 39.4956 0.628174 38.5954ZM1.73218 38.5954C1.73218 38.8812 1.96536 39.1146 2.25088 39.1146C2.5364 39.1146 2.76957 38.8812 2.76957 38.5954C2.76957 38.3096 2.5364 38.0762 2.25088 38.0762C1.96536 38.0762 1.73218 38.3096 1.73218 38.5954Z" fill="#ACF780"/>
</g>
<defs>
<clipPath id="clip0_2_7336">
<rect width="49" height="40" fill="white" transform="translate(0.628174 0.219543)"/>
</clipPath>
</defs>
</svg>
