<?xml version="1.0" standalone="no"?>
<!DOCTYPE svg PUBLIC "-//W3C//DTD SVG 20010904//EN"
 "http://www.w3.org/TR/2001/REC-SVG-20010904/DTD/svg10.dtd">
<svg version="1.0"
    xmlns="http://www.w3.org/2000/svg" width="564.000000pt" height="564.000000pt" viewBox="0 0 564.000000 564.000000" preserveAspectRatio="xMidYMid meet">

    <g transform="translate(0.000000,564.000000) scale(0.100000,-0.100000)" fill="#AEF77E" stroke="none">
        <path d="M0 2820 l0 -2820 946 0 946 0 -6 28 c-3 15 -8 109 -12 210 l-7 182
25 0 c42 0 84 20 98 45 7 14 17 25 22 25 15 0 8 18 -21 49 -16 17 -25 31 -21
31 4 0 22 -16 39 -35 17 -19 35 -35 41 -35 10 0 87 -49 115 -73 51 -43 260
-157 358 -194 29 -11 45 -23 42 -31 -10 -26 6 -10 20 21 8 17 13 23 9 12 -20
-67 -44 -172 -44 -192 0 -12 -4 -23 -10 -23 -5 0 -10 -4 -10 -10 0 -5 8 -10
19 -10 15 0 20 10 26 47 9 59 64 222 97 288 22 42 26 46 26 22 0 -15 -4 -24
-9 -21 -5 3 -5 -6 0 -19 6 -14 8 -28 5 -31 -2 -3 -1 -4 3 -1 11 8 32 -16 27
-30 -10 -26 18 -27 42 -1 30 32 20 35 -14 4 -18 -17 -24 -18 -19 -7 3 9 -2 25
-12 36 -27 29 -21 107 13 166 15 26 31 47 35 47 4 0 8 6 8 13 0 12 78 136 93
147 4 3 12 15 19 28 10 18 15 21 26 12 11 -9 12 -7 8 9 -3 13 5 34 24 58 17
21 35 48 42 61 6 12 16 22 22 22 6 0 8 -4 5 -8 -3 -5 1 -9 9 -9 11 0 12 3 3
14 -14 17 15 61 53 80 21 11 19 18 -4 14 -5 -1 12 25 38 58 26 34 52 58 57 55
5 -3 8 0 6 8 -2 8 10 29 25 48 l29 34 19 -25 c12 -15 17 -18 13 -6 -4 12 -2
17 7 15 8 -2 14 3 14 11 0 8 -8 15 -17 17 -12 1 -15 -3 -11 -14 5 -13 3 -14
-7 -5 -10 9 -3 23 31 67 24 31 47 56 51 56 15 0 17 -18 3 -24 -8 -3 -15 -11
-15 -18 0 -9 3 -9 10 2 9 13 11 13 19 1 8 -12 12 -11 27 4 17 17 17 17 -6 10
-23 -7 -24 -7 -10 10 8 11 10 16 4 12 -7 -4 -14 -1 -17 7 -7 18 41 65 51 50 5
-7 14 -4 27 9 11 11 14 17 8 13 -7 -4 -13 -2 -13 4 0 6 -5 8 -10 5 -6 -4 -7
-11 -4 -17 5 -7 2 -8 -5 -4 -9 6 -8 13 5 27 19 21 29 25 18 7 -4 -7 -3 -8 5
-4 6 4 9 12 5 17 -3 5 13 29 35 52 23 23 41 45 41 49 0 5 7 8 16 8 8 0 13 4
10 9 -3 4 2 15 12 24 13 12 21 13 32 6 12 -9 11 -10 -4 -5 -13 5 -17 2 -13 -8
4 -11 1 -13 -11 -9 -13 5 -14 3 -6 -6 9 -10 17 -10 33 -1 17 8 21 8 19 -2 -2
-10 28 -14 125 -18 71 -3 131 -2 134 3 8 14 42 7 51 -11 9 -15 22 -127 37
-309 4 -52 2 -64 -12 -73 -15 -9 -14 -10 7 -4 24 6 24 6 5 -10 -11 -8 -23 -16
-27 -16 -4 0 -30 -14 -58 -31 -27 -17 -55 -27 -61 -23 -8 5 -9 3 -4 -6 6 -10
4 -12 -9 -7 -10 4 -15 3 -11 -3 7 -12 -65 -49 -84 -42 -8 3 -11 0 -7 -7 5 -7
-1 -11 -13 -11 -12 0 -20 -3 -18 -7 1 -5 -3 -8 -8 -8 -5 0 -9 2 -8 5 1 3 -7 6
-17 6 -18 0 -21 -19 -5 -33 4 -4 5 -2 0 6 -5 10 -4 12 4 7 6 -4 9 -12 5 -17
-3 -5 -10 -7 -15 -4 -5 4 -9 1 -9 -4 0 -15 -27 -14 -34 2 -5 9 -7 9 -12 0 -3
-7 -12 -13 -20 -13 -8 0 -11 -6 -7 -17 4 -11 3 -14 -5 -9 -7 4 -12 4 -12 -1 0
-10 -52 -34 -59 -27 -3 3 0 9 8 13 10 7 10 9 -2 14 -12 4 -15 -1 -12 -23 3
-22 0 -28 -11 -23 -8 3 -14 -1 -14 -11 0 -9 -7 -16 -15 -16 -8 0 -15 -4 -15
-10 0 -5 -6 -9 -12 -7 -7 1 -12 -3 -11 -8 1 -6 -8 -12 -20 -12 -12 -1 -30 -12
-41 -25 -11 -14 -27 -22 -40 -20 -21 4 -21 3 -1 -12 16 -13 17 -15 2 -10 -13
5 -16 2 -11 -10 5 -12 2 -15 -12 -9 -12 4 -15 3 -10 -6 4 -6 4 -10 -1 -9 -4 1
-20 -6 -35 -16 -15 -10 -32 -15 -38 -11 -5 3 -19 3 -31 0 -19 -6 -19 -8 -5
-24 15 -16 13 -19 -17 -42 -17 -13 -35 -24 -39 -25 -5 -1 -11 -3 -15 -4 -5 -1
-12 -2 -16 -1 -5 1 -5 -4 -1 -10 9 -15 -16 -30 -41 -23 -16 4 -17 3 -5 -5 8
-5 12 -12 10 -14 -3 -3 -26 -21 -53 -41 -49 -38 -79 -50 -38 -15 27 22 25 34
-2 14 -10 -7 -20 -22 -22 -32 -1 -10 -9 -17 -16 -15 -8 2 -11 0 -6 -4 10 -11
-44 -65 -57 -57 -6 3 -8 3 -4 -2 8 -9 -69 -100 -85 -100 -6 0 -12 -7 -14 -15
-4 -13 -3 -13 6 0 6 8 11 10 11 4 0 -6 -9 -19 -20 -29 -11 -10 -20 -22 -20
-27 0 -5 -11 -26 -25 -46 -16 -24 -25 -31 -25 -19 0 9 4 17 9 17 5 0 12 8 15
18 4 11 -2 8 -17 -9 -21 -24 -25 -25 -36 -10 -10 14 -11 13 -5 -4 4 -11 8 -32
8 -47 l1 -28 93 0 c72 0 94 3 98 15 3 8 29 39 57 69 29 29 73 76 98 102 43 46
135 131 220 203 20 17 41 31 47 31 6 0 12 3 14 8 2 4 26 25 53 47 28 22 52 42
55 45 33 33 250 171 259 165 7 -3 8 0 5 9 -7 19 16 22 34 4 9 -9 12 -9 12 0 0
7 -6 12 -12 12 -7 0 -1 10 14 21 34 25 276 149 292 149 6 0 12 -12 13 -28 1
-15 9 -124 18 -242 16 -222 36 -417 54 -530 6 -36 11 -68 11 -72 0 -5 360 -8
800 -8 l800 0 0 2820 0 2820 -2820 0 -2820 0 0 -2820z m2400 1028 c0 -9 3 -9
12 0 7 7 27 12 45 12 26 0 34 -5 39 -24 3 -13 4 -35 2 -47 -2 -20 -10 -24 -46
-27 -47 -3 -166 18 -143 26 11 4 11 6 0 13 -11 6 -11 13 -3 26 9 15 24 21 87
32 4 0 7 -4 7 -11z m150 2 c-9 -6 -10 -10 -3 -10 6 0 15 5 18 10 3 6 16 10 28
10 18 0 19 -2 7 -11 -11 -8 -5 -9 22 -4 21 3 56 1 78 -5 35 -9 39 -13 30 -29
-8 -16 -6 -18 13 -15 12 2 2 -3 -23 -11 -25 -9 -80 -18 -122 -22 l-78 -6 0 45
c0 48 5 58 29 58 14 0 14 -2 1 -10z m-463 -16 c-3 -3 -12 -4 -19 -1 -8 3 -5 6
6 6 11 1 17 -2 13 -5z m-124 -11 c-7 -2 -19 -2 -25 0 -7 3 -2 5 12 5 14 0 19
-2 13 -5z m990 -120 c-7 -2 -19 -2 -25 0 -7 3 -2 5 12 5 14 0 19 -2 13 -5z
m200 0 c-7 -2 -19 -2 -25 0 -7 3 -2 5 12 5 14 0 19 -2 13 -5z m244 -49 c-3 -3
-12 -4 -19 -1 -8 3 -5 6 6 6 11 1 17 -2 13 -5z m-1476 -135 c80 -22 81 -22 53
-35 l-29 -12 30 -1 c48 -2 94 -36 115 -87 21 -48 26 -69 11 -46 -7 12 -11 12
-22 0 -12 -13 -16 -12 -32 6 -16 18 -18 18 -13 3 3 -11 2 -16 -4 -12 -6 3 -10
15 -10 26 0 10 -3 18 -7 17 -5 -2 -29 8 -54 20 -60 29 -146 43 -261 41 -145
-2 -185 0 -169 10 11 7 9 10 -8 16 -47 14 -6 51 80 70 84 19 214 13 320 -16z
m573 9 c-6 -10 -5 -10 7 -2 9 8 76 12 191 13 140 2 184 -1 214 -14 35 -15 36
-16 18 -30 -15 -11 -16 -15 -4 -16 32 -2 -44 -17 -142 -28 -124 -14 -338 -19
-331 -8 2 4 12 7 21 7 14 0 15 2 2 10 -9 6 -20 5 -29 -3 -12 -10 -13 -9 -6 3
14 25 57 80 62 80 2 0 1 -6 -3 -12z m-405 -85 c17 -20 28 -39 24 -42 -3 -3 -8
1 -11 9 -3 8 -18 27 -33 42 -15 16 -24 28 -19 28 5 0 22 -17 39 -37z m24 22
c-3 -9 -8 -14 -10 -11 -3 3 -2 9 2 15 9 16 15 13 8 -4z m242 -3 c-3 -3 -11 0
-18 7 -9 10 -8 11 6 5 10 -3 15 -9 12 -12z m758 -9 c-7 -2 -19 -2 -25 0 -7 3
-2 5 12 5 14 0 19 -2 13 -5z m-996 -85 c-3 -8 -6 -5 -6 6 -1 11 2 17 5 13 3
-3 4 -12 1 -19z m-650 -4 c-3 -3 -12 -4 -19 -1 -8 3 -5 6 6 6 11 1 17 -2 13
-5z m50 0 c-3 -3 -12 -4 -19 -1 -8 3 -5 6 6 6 11 1 17 -2 13 -5z m444 -11 c13
-16 12 -17 -3 -4 -10 7 -18 15 -18 17 0 8 8 3 21 -13z m1759 -18 c11 -13 10
-14 -4 -9 -9 3 -16 10 -16 15 0 13 6 11 20 -6z m-2365 -71 c55 -8 138 -22 184
-31 l84 -16 -61 -17 c-72 -20 -120 -50 -151 -95 -25 -38 -43 -133 -34 -188 l6
-38 -79 6 c-363 28 -437 46 -529 127 -70 61 -85 133 -39 187 67 80 330 108
619 65z m1565 -24 c0 -5 -4 -10 -9 -10 -19 0 -72 -54 -92 -92 -34 -67 -36
-143 -4 -220 7 -16 -1 -18 -89 -18 -112 0 -305 25 -355 46 -41 17 -97 67 -116
104 -17 33 -27 102 -18 116 12 16 102 51 163 63 30 6 64 13 75 15 47 9 445 6
445 -4z m738 -5 c20 -7 11 -13 -60 -40 -79 -30 -84 -31 -103 -14 -33 27 -63
40 -133 54 -65 14 -63 14 103 11 94 -2 181 -7 193 -11z m-1437 -27 c1 -7 2
-40 3 -73 1 -36 9 -75 20 -98 10 -21 17 -39 15 -40 -7 -5 -189 -77 -194 -77
-3 0 -5 24 -5 53 0 66 -23 113 -77 153 l-41 31 84 6 c62 3 96 11 131 29 58 30
63 31 64 16z m1059 -3 c17 -21 16 -64 -3 -82 -21 -21 -68 -20 -84 3 -18 24
-16 59 3 78 20 20 68 21 84 1z m-250 -80 c19 -23 8 -50 -20 -50 -19 0 -26 6
-28 24 -5 35 26 53 48 26z m714 9 c10 -4 16 -18 16 -39 0 -29 -5 -36 -43 -54
-24 -12 -53 -21 -64 -21 -31 0 -55 28 -51 59 5 42 90 75 142 55z m-1782 -41
c21 -18 24 -66 6 -81 -31 -24 -57 -23 -83 3 -26 26 -27 52 -3 83 15 17 58 15
80 -5z m-237 -73 c0 -31 -33 -40 -52 -14 -16 22 1 46 31 42 15 -2 21 -10 21
-28z m3008 -17 c47 -104 25 -513 -30 -571 -7 -7 -13 -18 -13 -23 0 -5 -13 -9
-30 -9 -23 0 -31 5 -36 24 -5 21 11 126 47 309 12 65 11 147 -3 223 -11 59
-10 65 8 79 29 22 33 19 57 -32z m-1601 22 c0 -5 -5 -11 -11 -13 -6 -2 -11 4
-11 13 0 9 5 15 11 13 6 -2 11 -8 11 -13z m-1327 -125 c-5 -8 -11 -8 -17 -2
-6 6 -7 16 -3 22 5 8 11 8 17 2 6 -6 7 -16 3 -22z m2134 -79 c40 -56 33 -112
-19 -150 -54 -39 -109 -48 -147 -24 -39 25 -43 32 -43 83 0 74 54 120 142 120
40 0 50 -4 67 -29z m-1504 -11 c3 -6 -1 -7 -9 -4 -18 7 -21 14 -7 14 6 0 13
-4 16 -10z m-926 -110 c11 -24 11 -24 -3 -6 -9 11 -16 24 -16 30 0 12 5 7 19
-24z m1248 -46 c-3 -3 -12 -4 -19 -1 -8 3 -5 6 6 6 11 1 17 -2 13 -5z m-574
-110 c26 -4 47 -11 47 -16 0 -6 -8 -7 -17 -4 -10 4 -14 4 -11 0 4 -3 0 -13 -8
-22 -12 -12 -31 -13 -97 -8 -87 7 -107 16 -104 48 1 19 6 20 72 14 38 -3 91
-9 118 -12z m84 -20 c-3 -3 -12 -4 -19 -1 -8 3 -5 6 6 6 11 1 17 -2 13 -5z
m1213 -10 c0 -8 -19 -13 -24 -6 -3 5 1 9 9 9 8 0 15 -2 15 -3z m-52 -129 c-3
-3 -9 2 -12 12 -6 14 -5 15 5 6 7 -7 10 -15 7 -18z m-2431 -17 c22 -46 23 -58
5 -58 -10 0 -27 7 -40 15 -19 14 -22 30 -13 63 1 1 9 2 19 2 10 0 23 -10 29
-22z m2183 -81 c13 -24 13 -30 0 -54 -9 -16 -24 -28 -35 -28 -16 0 -19 8 -20
50 -1 28 0 54 3 58 8 16 36 2 52 -26z m277 -79 c-3 -8 -6 -5 -6 6 -1 11 2 17
5 13 3 -3 4 -12 1 -19z m-1292 -103 c72 -2 162 -4 202 -4 63 -1 75 -4 100 -27
l28 -25 -240 4 c-201 4 -256 8 -340 27 -143 31 -143 42 0 35 66 -3 179 -7 250
-10z m1515 -74 c0 -13 99 -61 126 -61 39 0 54 -11 54 -39 0 -39 -17 -51 -71
-51 -116 0 -233 100 -171 146 19 15 62 19 62 5z m-2626 -165 c-12 -9 -23 -11
-30 -5 -6 5 -20 7 -30 3 -16 -5 -16 -4 -4 5 8 6 30 11 49 11 33 0 34 -1 15
-14z m699 -23 c-7 -2 -19 -2 -25 0 -7 3 -2 5 12 5 14 0 19 -2 13 -5z m-799
-79 c32 -32 13 -49 -66 -58 -45 -6 -58 -4 -60 6 0 7 -2 20 -3 28 -2 23 7 34
16 19 7 -11 9 -10 9 4 0 14 9 17 44 17 27 0 51 -6 60 -16z m682 -19 c11 -14 9
-21 -9 -39 -17 -18 -29 -21 -66 -16 -59 7 -76 33 -41 62 29 24 97 20 116 -7z
m335 -20 c56 -19 59 -27 59 -149 l0 -89 -40 7 c-128 20 -118 20 -122 -5 -4
-32 -42 -33 -46 -2 -4 29 -46 37 -166 31 l-92 -5 -52 46 -52 46 59 1 c97 3
161 50 161 121 l0 26 123 -6 c73 -3 141 -12 168 -22z m-769 -24 c-1 -7 2 -10
8 -6 5 3 19 0 30 -8 18 -12 19 -15 5 -20 -8 -4 -14 -12 -13 -19 4 -18 -52 -11
-74 9 -22 20 -22 27 -2 48 18 18 50 16 46 -4z m93 -49 c-3 -3 -11 0 -18 7 -9
10 -8 11 6 5 10 -3 15 -9 12 -12z m2290 -72 c-11 -13 -31 -20 -52 -20 -44 0
-173 -27 -248 -51 -33 -11 -120 -54 -193 -96 -141 -80 -224 -117 -283 -126
-36 -5 -35 -4 75 108 61 62 125 120 141 128 41 21 118 33 315 52 91 8 179 17
195 18 72 9 70 9 50 -13z m-2111 -52 c-5 -8 -2 -9 10 -5 10 4 15 3 11 -3 -6
-10 9 -15 30 -10 6 1 7 -1 3 -5 -3 -4 2 -15 13 -26 24 -24 24 -61 1 -83 -18
-15 -20 -15 -34 1 -41 48 -59 85 -52 101 7 16 9 23 13 37 0 3 4 5 7 5 3 0 2
-5 -2 -12z m-327 -25 c9 -12 9 -20 0 -34 -13 -20 -26 -23 -76 -13 -32 7 -51
40 -36 64 10 16 97 3 112 -17z m-356 -45 c-9 -20 -10 -18 -10 17 0 31 2 36 9
23 6 -10 7 -25 1 -40z m565 -37 c13 -10 20 -21 17 -25 -3 -3 -1 -6 5 -6 7 0
12 -11 12 -24 0 -38 -34 -43 -75 -11 -38 28 -45 58 -17 74 24 14 31 14 58 -8z
m-377 -87 c11 -10 12 -16 3 -27 -7 -8 -9 -17 -5 -20 3 -4 -5 -8 -18 -8 -36 -2
-54 2 -57 12 -2 5 -13 9 -25 10 -12 0 -16 3 -9 6 6 2 12 11 12 18 0 34 67 40
99 9z m-225 1 c11 -8 14 -15 8 -15 -7 0 -12 -6 -12 -14 0 -34 -46 -31 -68 4
-11 18 -10 22 10 30 32 12 40 12 62 -5z m3811 -1 c11 -12 13 -20 6 -27 -22
-22 -10 -28 15 -8 47 37 102 27 134 -24 11 -18 34 -38 50 -45 37 -15 38 -28 3
-32 -21 -2 -27 -8 -26 -23 2 -11 0 -31 -3 -44 -4 -20 -9 -22 -42 -17 -32 5
-34 4 -15 -5 26 -14 38 -38 24 -52 -7 -7 -19 -4 -36 7 -35 23 -69 17 -73 -12
-2 -13 -10 -26 -18 -29 -8 -3 -14 -16 -14 -28 0 -13 -3 -30 -6 -39 -7 -18 -39
-21 -50 -5 -4 6 -19 9 -37 5 -87 -18 -66 90 23 114 24 7 41 18 45 31 8 25 -11
49 -39 48 -21 0 -21 0 2 -9 32 -13 27 -36 -10 -49 -25 -9 -35 -8 -48 4 -23 20
-46 19 -86 -6 -35 -21 -37 -20 -35 17 2 15 -9 28 -34 43 -35 20 -36 23 -22 44
12 17 24 22 60 21 l45 0 -30 37 c-42 52 -33 69 34 69 29 1 67 7 83 15 41 19
80 18 100 -1z m-3363 -191 c23 -20 23 -56 1 -74 -11 -9 -14 -10 -9 -2 5 9 2
11 -8 7 -9 -3 -13 -11 -10 -16 4 -6 -2 -7 -16 -3 -12 4 -28 8 -35 9 -20 3 -45
27 -45 42 0 8 6 23 12 34 16 25 83 27 110 3z m672 -15 c-5 -8 -2 -9 10 -5 14
6 17 3 12 -8 -3 -10 -1 -15 7 -13 6 2 26 -7 44 -20 17 -12 36 -22 42 -22 6 0
11 -4 11 -8 0 -5 18 -17 39 -28 22 -10 37 -23 34 -28 -4 -5 -1 -6 6 -2 6 4 18
3 25 -3 22 -19 158 -91 171 -91 7 0 25 -10 40 -22 l27 -21 -7 23 c-6 20 -5 21
8 9 8 -8 14 -15 12 -17 -4 -4 85 -100 145 -158 62 -58 115 -100 183 -141 31
-20 57 -38 57 -41 0 -15 -85 -150 -92 -146 -4 3 -5 -2 -2 -10 3 -8 -1 -25 -10
-38 -9 -12 -16 -18 -16 -12 0 6 -16 16 -35 24 -19 7 -32 17 -30 21 7 11 -21
30 -36 24 -8 -2 -25 4 -39 15 -19 15 -21 20 -9 20 9 0 19 -7 23 -15 3 -8 10
-15 16 -15 5 0 0 11 -12 25 -15 17 -25 22 -37 15 -10 -5 -25 -3 -43 8 -31 18
-38 35 -10 25 14 -5 13 -3 -3 10 -13 10 -25 12 -37 6 -18 -10 -34 4 -23 21 4
6 -4 9 -17 7 -14 -1 -23 3 -23 13 0 8 -16 25 -35 38 -19 13 -48 33 -64 45 -16
12 -39 22 -52 23 -13 1 -38 14 -56 30 -88 78 -158 149 -158 160 0 7 -5 16 -12
20 -7 5 -8 2 -3 -7 4 -8 -8 4 -28 26 -36 40 -36 41 -36 130 -1 53 3 84 8 77 7
-11 9 -10 14 3 4 9 3 13 -3 10 -6 -3 -10 -1 -10 5 0 6 -4 9 -9 6 -4 -3 -7 5
-6 17 3 27 3 27 16 27 5 0 7 -5 3 -12z m-977 -127 c74 -55 87 -74 73 -101 -5
-10 -10 -28 -10 -38 0 -16 -9 -22 -39 -27 -45 -7 -83 8 -118 48 -11 14 -27 29
-35 33 -8 5 -22 20 -31 33 -15 23 -15 25 1 37 11 8 12 13 5 14 -18 0 -16 13 6
37 28 30 75 19 148 -36z m817 -48 c-11 -47 -12 -235 -1 -285 7 -33 5 -37 -15
-41 -29 -5 -13 -11 71 -26 132 -25 219 -70 207 -108 -13 -39 -56 -47 -280 -47
-180 -1 -220 2 -274 18 -43 13 -69 27 -80 44 -15 24 -15 26 11 48 33 28 76 41
187 56 92 12 101 15 82 27 -9 6 -10 25 -1 89 11 77 4 182 -17 235 -6 17 14 23
80 26 l38 1 -8 -37z m160 -99 c3 -8 2 -12 -4 -9 -6 3 -10 10 -10 16 0 14 7 11
14 -7z m-1324 -25 c0 -5 -13 -22 -30 -37 -41 -38 -47 -78 -18 -122 13 -19 40
-43 60 -53 85 -42 362 -62 433 -33 38 16 46 48 23 87 -11 18 -9 23 16 45 16
14 32 22 37 17 4 -4 14 -50 20 -101 15 -107 4 -213 -32 -323 -27 -78 -33 -87
-84 -110 -65 -30 -143 -24 -332 24 -163 42 -220 63 -255 94 -16 14 -16 18 4
57 18 34 23 65 28 186 7 164 15 187 82 244 46 40 48 41 48 25z m-25 -81 c-9
-41 -25 -60 -25 -29 0 23 16 61 26 61 3 0 3 -15 -1 -32z m2233 -7 c8 -5 12
-21 10 -37 -4 -35 -36 -44 -61 -16 -15 16 -15 20 -1 40 16 23 31 27 52 13z
m-820 -151 c6 0 12 -4 12 -10 0 -5 -17 -2 -37 7 -53 24 -63 32 -56 48 4 11 13
7 36 -15 18 -17 38 -30 45 -30z m275 8 c23 -18 54 -41 67 -51 17 -13 19 -16 6
-12 -17 5 -45 24 -104 72 -42 35 -17 27 31 -9z m951 -16 c2 -4 -4 -8 -15 -8
-10 0 -19 4 -19 8 0 4 6 8 14 8 8 0 17 -4 20 -8z"/>
        <path d="M2526 3521 c2 -3 -3 -15 -12 -29 -11 -17 -13 -27 -5 -35 8 -8 11 -8
11 2 0 7 4 9 10 6 6 -3 7 1 4 9 -4 10 3 20 20 27 35 16 33 29 -3 26 -16 -1
-27 -4 -25 -6z"/>
        <path d="M1911 1070 c-1 -14 -4 -35 -7 -46 -3 -13 0 -23 8 -26 10 -4 13 3 10
31 -5 52 -9 70 -11 41z"/>
        <path d="M1886 1006 c2 -16 4 -36 5 -45 0 -12 2 -11 8 4 5 11 5 25 1 30 -4 6
-10 17 -13 25 -2 8 -3 2 -1 -14z"/>
        <path d="M2025 960 c-3 -5 -1 -10 4 -10 6 0 11 5 11 10 0 6 -2 10 -4 10 -3 0
-8 -4 -11 -10z"/>
        <path d="M2075 959 c-4 -6 -5 -12 -2 -15 2 -3 7 2 10 11 7 17 1 20 -8 4z"/>
        <path d="M2110 916 c0 -2 7 -7 16 -10 8 -3 12 -2 9 4 -6 10 -25 14 -25 6z"/>
        <path d="M1890 900 c0 -5 5 -10 10 -10 6 0 10 5 10 10 0 6 -4 10 -10 10 -5 0
-10 -4 -10 -10z"/>
        <path d="M2276 860 c6 -6 25 -12 42 -13 21 -1 34 -8 38 -20 3 -9 14 -22 24
-27 12 -7 17 -16 13 -27 -5 -12 -2 -15 9 -11 9 4 22 1 29 -5 8 -7 4 -1 -7 13
-47 56 -76 85 -84 85 -5 0 -12 3 -16 8 -4 4 -19 7 -33 7 -17 0 -22 -3 -15 -10z"/>
        <path d="M2327 801 c-3 -14 -1 -18 9 -14 16 6 18 19 5 27 -5 3 -11 -3 -14 -13z"/>
        <path d="M2195 800 c3 -5 10 -10 16 -10 5 0 9 5 9 10 0 6 -7 10 -16 10 -8 0
-12 -4 -9 -10z"/>
        <path d="M1985 780 c10 -11 20 -20 22 -20 2 0 -2 9 -9 20 -7 11 -17 20 -22 20
-5 0 -1 -9 9 -20z"/>
        <path d="M2360 780 c0 -5 5 -10 11 -10 5 0 7 5 4 10 -3 6 -8 10 -11 10 -2 0
-4 -4 -4 -10z"/>
        <path d="M2251 757 c2 -1 13 -9 24 -17 19 -14 19 -14 6 3 -7 9 -18 17 -24 17
-6 0 -8 -1 -6 -3z"/>
        <path d="M2053 725 c0 -8 7 -15 15 -15 12 0 12 3 2 15 -7 8 -13 15 -15 15 -1
0 -2 -7 -2 -15z"/>
        <path d="M2423 705 c7 -13 14 -20 15 -14 5 14 -6 39 -17 39 -5 0 -4 -11 2 -25z"/>
        <path d="M2477 709 c6 -6 9 -18 6 -26 -3 -8 4 -27 15 -43 13 -16 17 -30 11
-32 -6 -2 9 -3 33 -3 23 1 43 5 43 11 0 5 -11 8 -24 6 -14 -2 -33 6 -47 19
-25 23 -32 49 -13 49 6 0 4 7 -5 15 -8 8 -18 15 -22 15 -5 0 -3 -5 3 -11z"/>
        <path d="M2401 694 c0 -11 3 -14 6 -6 3 7 2 16 -1 19 -3 4 -6 -2 -5 -13z"/>
        <path d="M2455 690 c3 -5 8 -10 11 -10 2 0 4 5 4 10 0 6 -5 10 -11 10 -5 0 -7
-4 -4 -10z"/>
        <path d="M2510 676 c0 -14 29 -36 47 -35 14 0 15 2 3 6 -8 3 -23 12 -32 21
-10 8 -18 12 -18 8z"/>
        <path d="M2110 666 c0 -3 9 -10 19 -16 15 -7 22 -7 27 2 4 7 4 10 -1 6 -4 -4
-16 -3 -26 3 -11 5 -19 7 -19 5z"/>
        <path d="M2385 650 c3 -5 8 -10 11 -10 2 0 4 5 4 10 0 6 -5 10 -11 10 -5 0 -7
-4 -4 -10z"/>
        <path d="M2446 613 c13 -14 27 -23 31 -20 3 4 2 7 -4 7 -6 0 -13 9 -16 20 -3
11 -12 20 -21 20 -11 0 -9 -7 10 -27z"/>
        <path d="M2655 543 c11 -7 23 -13 27 -13 5 0 2 -10 -6 -22 -8 -13 -16 -36 -18
-53 -2 -16 -7 -33 -12 -36 -4 -4 -4 -9 2 -13 5 -3 17 9 26 27 9 17 25 46 36
64 16 28 17 33 4 44 -8 7 -29 13 -46 14 -28 2 -29 1 -13 -12z m48 -5 c16 -12
15 -15 -8 -43 -13 -16 -24 -25 -25 -18 0 6 8 19 17 29 16 15 16 17 -2 30 -10
8 -14 14 -9 14 6 0 18 -6 27 -12z"/>
        <path d="M2630 536 c0 -2 7 -9 15 -16 9 -7 15 -8 15 -2 0 5 -7 12 -15 16 -8 3
-15 4 -15 2z"/>
        <path d="M2438 453 c7 -3 16 -2 19 1 4 3 -2 6 -13 5 -11 0 -14 -3 -6 -6z"/>
        <path d="M2530 420 c23 -20 30 -24 30 -16 0 9 -32 36 -42 36 -6 0 -1 -9 12
-20z"/>
        <path d="M3493 1435 c-10 -11 -9 -13 6 -12 11 1 17 7 14 14 -6 16 -5 16 -20
-2z"/>
        <path d="M3470 1400 c0 -5 7 -10 16 -10 8 0 12 5 9 10 -3 6 -10 10 -16 10 -5
0 -9 -4 -9 -10z"/>
        <path d="M3568 1383 c7 -3 16 -2 19 1 4 3 -2 6 -13 5 -11 0 -14 -3 -6 -6z"/>
        <path d="M3520 1359 c0 -5 5 -7 10 -4 6 3 10 8 10 11 0 2 -4 4 -10 4 -5 0 -10
-5 -10 -11z"/>
        <path d="M3646 1291 c-4 -7 -5 -15 -2 -18 9 -9 19 4 14 18 -4 11 -6 11 -12 0z"/>
        <path d="M3378 1283 c7 -3 16 -2 19 1 4 3 -2 6 -13 5 -11 0 -14 -3 -6 -6z"/>
        <path d="M3400 1265 c-11 -13 -10 -14 4 -9 9 3 16 10 16 15 0 13 -6 11 -20 -6z"/>
        <path d="M3280 1185 c-7 -8 -9 -15 -6 -15 4 0 14 7 22 15 9 8 11 15 6 15 -5 0
-15 -7 -22 -15z"/>
        <path d="M3317 1180 c-9 -11 -13 -20 -8 -20 4 0 16 9 26 20 10 11 14 20 9 20
-5 0 -17 -9 -27 -20z"/>
        <path d="M3921 1114 c0 -11 3 -14 6 -6 3 7 2 16 -1 19 -3 4 -6 -2 -5 -13z"/>
        <path d="M3209 1099 c-9 -17 -8 -20 2 -14 9 6 10 3 5 -10 -5 -15 -4 -16 9 -5
17 14 21 50 5 50 -5 0 -14 -10 -21 -21z"/>
        <path d="M3186 1054 c-3 -8 -9 -13 -13 -11 -5 2 -21 -12 -38 -32 l-29 -36 32
29 c29 27 37 27 33 2 -1 -5 4 -4 12 2 8 7 15 24 15 37 0 29 -3 31 -12 9z"/>
        <path d="M3875 1061 c3 -5 -4 -12 -15 -16 -11 -3 -20 -11 -20 -16 0 -5 11 -2
25 7 26 17 33 34 14 34 -5 0 -8 -4 -4 -9z"/>
        <path d="M3684 989 c-3 -5 3 -6 12 -2 12 4 15 3 10 -5 -4 -7 -2 -12 5 -12 8 0
7 -5 -2 -17 -13 -15 -12 -15 8 -2 14 8 18 16 12 20 -8 4 -7 9 1 14 7 4 17 1
22 -6 8 -12 9 -11 6 1 -5 16 -65 23 -74 9z"/>
        <path d="M3110 936 c-15 -39 -12 -46 6 -13 9 16 13 31 10 34 -3 3 -10 -6 -16
-21z"/>
        <path d="M3310 930 c0 -6 7 -10 15 -10 8 0 15 2 15 4 0 2 -7 6 -15 10 -8 3
-15 1 -15 -4z"/>
        <path d="M3058 898 c-10 -9 -13 -20 -9 -23 10 -6 34 21 29 33 -1 4 -11 0 -20
-10z"/>
        <path d="M3241 844 c0 -11 3 -14 6 -6 3 7 2 16 -1 19 -3 4 -6 -2 -5 -13z"/>
        <path d="M2990 775 c-7 -9 -10 -18 -7 -21 3 -3 10 4 17 15 13 25 8 27 -10 6z"/>
        <path d="M2949 753 c-22 -46 -22 -50 1 -15 13 18 20 35 18 37 -3 3 -11 -7 -19
-22z"/>
        <path d="M2946 703 c-6 -14 -5 -15 5 -6 7 7 10 15 7 18 -3 3 -9 -2 -12 -12z"/>
        <path d="M3185 690 c-3 -5 -1 -10 4 -10 6 0 11 5 11 10 0 6 -2 10 -4 10 -3 0
-8 -4 -11 -10z"/>
        <path d="M3200 650 c0 -5 5 -10 10 -10 6 0 10 5 10 10 0 6 -4 10 -10 10 -5 0
-10 -4 -10 -10z"/>
        <path d="M2850 620 c-6 -11 -8 -20 -5 -20 4 0 -1 -7 -9 -16 -21 -21 -20 -27 7
-50 l22 -19 -18 22 c-12 14 -15 23 -8 28 6 3 11 1 11 -5 0 -6 5 -8 11 -4 8 4
7 9 -2 15 -11 7 -10 11 6 24 16 12 17 14 2 9 -13 -5 -16 -2 -11 10 3 9 10 13
15 10 5 -3 9 0 9 5 0 18 -19 12 -30 -9z"/>
        <path d="M3059 573 c-13 -15 -12 -15 11 -3 34 17 36 20 18 20 -9 0 -22 -7 -29
-17z"/>
        <path d="M3083 553 c-7 -2 -13 -14 -12 -26 0 -15 2 -17 6 -7 3 8 12 21 21 28
16 12 8 15 -15 5z"/>
        <path d="M3386 535 c-11 -8 -16 -15 -10 -15 5 0 18 7 28 15 11 8 16 15 10 15
-5 0 -18 -7 -28 -15z"/>
        <path d="M3010 517 c-19 -12 -41 -27 -48 -34 -22 -21 3 -15 28 7 22 19 35 24
53 21 4 0 7 6 7 14 0 8 -1 15 -2 14 -2 0 -19 -10 -38 -22z"/>
        <path d="M2770 476 c13 -13 13 -27 -1 -23 -6 1 -14 -5 -16 -13 -3 -10 -2 -11
4 -4 4 6 16 10 25 8 14 -2 16 1 8 16 -5 9 -7 19 -5 22 3 3 -2 5 -10 5 -11 0
-12 -4 -5 -11z"/>
        <path d="M3921 454 c0 -11 3 -14 6 -6 3 7 2 16 -1 19 -3 4 -6 -2 -5 -13z"/>
        <path d="M2960 442 c0 -7 -7 -9 -17 -5 -15 5 -16 3 -5 -8 9 -10 15 -10 24 -1
6 6 9 15 5 19 -4 3 -7 1 -7 -5z"/>
        <path d="M1885 356 c-4 -30 -5 -61 -2 -68 3 -7 6 1 6 18 2 63 13 93 35 97 17
4 16 5 -6 6 -25 1 -27 -2 -33 -53z"/>
        <path d="M2160 405 c0 -12 26 -32 50 -40 28 -9 27 -7 -17 24 -18 12 -33 19
-33 16z"/>
        <path d="M1930 390 c-24 -8 -23 -8 8 -9 20 -1 31 3 27 9 -3 6 -7 10 -8 9 -1
-1 -13 -5 -27 -9z"/>
        <path d="M2826 329 c-11 -11 -15 -19 -9 -19 12 0 38 28 32 34 -2 2 -13 -5 -23
-15z"/>
        <path d="M3088 283 c7 -3 16 -2 19 1 4 3 -2 6 -13 5 -11 0 -14 -3 -6 -6z"/>
        <path d="M1882 220 c0 -14 2 -19 5 -12 2 6 2 18 0 25 -3 6 -5 1 -5 -13z"/>
        <path d="M2660 211 c-9 -17 -8 -20 6 -14 14 5 15 3 4 -16 -11 -22 -12 -22 -25
-4 -8 10 -15 13 -15 8 0 -6 6 -17 12 -23 10 -10 10 -17 -1 -35 -13 -19 -12
-21 1 -10 8 7 18 10 22 6 4 -4 4 1 0 11 -5 13 -4 17 4 12 8 -5 10 -1 5 10 -3
10 -2 15 3 12 5 -4 10 7 11 23 3 35 -12 46 -27 20z"/>
        <path d="M2610 161 c0 -5 5 -13 10 -16 6 -3 10 -2 10 4 0 5 -4 13 -10 16 -5 3
-10 2 -10 -4z"/>
        <path d="M1892 130 c0 -19 2 -27 5 -17 2 9 2 25 0 35 -3 9 -5 1 -5 -18z"/>
        <path d="M2945 150 c-3 -5 -1 -10 4 -10 6 0 11 5 11 10 0 6 -2 10 -4 10 -3 0
-8 -4 -11 -10z"/>
        <path d="M2604 119 c-3 -6 -1 -16 4 -21 8 -8 11 -5 9 11 -1 24 -3 25 -13 10z"/>
        <path d="M1911 104 c0 -11 3 -14 6 -6 3 7 2 16 -1 19 -3 4 -6 -2 -5 -13z"/>
        <path d="M2530 100 c-6 -12 -8 -30 -4 -43 7 -19 9 -16 15 18 8 47 5 55 -11 25z"/>
        <path d="M4001 104 c0 -11 3 -14 6 -6 3 7 2 16 -1 19 -3 4 -6 -2 -5 -13z"/>
        <path d="M2481 74 c0 -11 3 -14 6 -6 3 7 2 16 -1 19 -3 4 -6 -2 -5 -13z"/>
        <path d="M2502 60 c0 -14 2 -19 5 -12 2 6 2 18 0 25 -3 6 -5 1 -5 -13z"/>
        <path d="M1902 30 c0 -19 2 -27 5 -17 2 9 2 25 0 35 -3 9 -5 1 -5 -18z"/>
        <path d="M2587 44 c-4 -4 -7 -14 -7 -23 0 -11 3 -12 11 -4 6 6 10 16 7 23 -2
6 -7 8 -11 4z"/>
        <path d="M2506 15 c-3 -8 -1 -15 4 -15 6 0 10 7 10 15 0 19 -6 19 -14 0z"/>
    </g>
</svg>
