<svg width="36" height="59" viewBox="0 0 36 59" fill="none" xmlns="http://www.w3.org/2000/svg">
<g clip-path="url(#clip0_2_7416)">
<path d="M18.9491 4.57483H17.0509V13.1191H18.9491V4.57483Z" fill="#ACF780"/>
<path d="M26.6793 14.9802H24.7745V10.3243L31.7389 3.51959L33.0873 4.83065L26.6793 11.0918V14.9802Z" fill="#ACF780"/>
<path d="M21.1811 3.32771C21.1811 5.04168 19.7607 6.43588 18 6.43588C16.2393 6.43588 14.8189 5.04808 14.8189 3.32771C14.8189 1.60735 16.2458 0.219543 18 0.219543C19.7542 0.219543 21.1811 1.60735 21.1811 3.32771Z" fill="#ACF780"/>
<path d="M18.9491 45.3328H17.0509V50.1613H18.9491V45.3328Z" fill="#ACF780"/>
<path d="M36 3.32771C36 5.04168 34.5796 6.43588 32.8189 6.43588C31.0582 6.43588 29.6378 5.04808 29.6378 3.32771C29.6378 1.60735 31.0582 0.219543 32.8189 0.219543C34.5796 0.219543 36 1.60735 36 3.32771Z" fill="#ACF780"/>
<path d="M11.2254 14.9802H9.32072V11.0918L2.91927 4.83065L4.26108 3.51959L11.2254 10.3243V14.9802Z" fill="#ACF780"/>
<path d="M0 3.32771C0 5.04168 1.42036 6.43588 3.18109 6.43588C4.94182 6.43588 6.36218 5.04808 6.36218 3.32771C6.36218 1.60735 4.93527 0.219543 3.18109 0.219543C1.42691 0.219543 0 1.60735 0 3.32771Z" fill="#ACF780"/>
<path d="M20.1731 35.8292L21.2269 35.6117L22.3462 37.799C23.4785 37.3321 24.48 36.6478 25.3047 35.81L23.616 34.0065L24.2051 33.1239L24.7942 32.2414L27.1702 33.0152C27.6153 31.9408 27.8509 30.7704 27.8247 29.5617L25.3244 29.453L25.1018 28.4233L24.8793 27.3936L27.1178 26.3C26.64 25.1936 25.9396 24.2151 25.0822 23.4093L23.2364 25.0593L22.3331 24.4837L21.4298 23.9081L22.2218 21.5866C21.1222 21.1517 19.9244 20.9215 18.6873 20.9471L18.576 23.3901L17.5222 23.6075L16.4684 23.825L15.3491 21.6378C14.2167 22.1046 13.2153 22.7889 12.3905 23.6267L14.0793 25.4302L13.4902 26.3128L12.9011 27.1954L10.5251 26.4215C10.08 27.496 9.84436 28.6663 9.87055 29.875L12.3709 29.9838L12.5935 31.0134L12.816 32.0431L10.5775 33.1367C11.0553 34.2431 11.7556 35.2216 12.6131 36.0274L14.4589 34.3774L15.3622 34.953L16.2655 35.5286L15.4735 37.8501C16.5731 38.285 17.7709 38.5153 19.008 38.4897L19.1193 36.0466L20.1731 35.8292ZM15.264 29.0756C15.6305 27.1442 17.5287 25.8651 19.5055 26.2169C21.4822 26.5686 22.7913 28.4297 22.4313 30.3611C22.0647 32.2925 20.1665 33.5716 18.1898 33.2199C16.2131 32.8681 14.904 31.007 15.264 29.0756Z" fill="white"/>
<path d="M32.1447 24.5221L30.3905 25.5901C31.4771 28.6216 31.3069 32.0751 29.6444 35.1257C27.9491 38.2211 25.0494 40.2804 21.8094 41.0606L21.7374 38.9374L18.9753 41.8217L21.9273 44.6037L21.8749 43.0752C25.8218 42.2438 29.3825 39.8007 31.4247 36.053C33.4473 32.3565 33.5716 28.1611 32.1382 24.5221H32.1447Z" fill="white"/>
<path d="M24.6371 19.0157C25.6844 19.5657 26.6204 20.2436 27.4254 21.0174L25.7956 22.0087L29.7294 22.9041L30.7178 19.0157L29.1862 19.9494C28.1651 18.9005 26.9673 17.986 25.5862 17.2697C19.4073 14.0464 11.8538 15.754 7.6909 20.979L9.50399 21.9256C13.1171 17.6534 19.44 16.304 24.6305 19.0093L24.6371 19.0157Z" fill="white"/>
<path d="M13.1564 40.0118C7.99854 37.3193 5.63563 31.4995 7.19345 26.2169L8.76436 27.0355L7.59272 23.2558L3.65236 24.3622L5.38036 25.264C3.31854 31.5251 6.06109 38.5472 12.2073 41.7513C13.6735 42.5124 15.2116 42.9984 16.7629 43.2287L16.6975 41.2141C15.4931 40.9967 14.3018 40.6002 13.1629 40.0054L13.1564 40.0118Z" fill="white"/>
<path d="M22.4836 49.4578H13.5164V58.2195H22.4836V49.4578Z" fill="#ACF780"/>
</g>
<defs>
<clipPath id="clip0_2_7416">
<rect width="36" height="58" fill="white" transform="translate(0 0.219543)"/>
</clipPath>
</defs>
</svg>
