<svg width="927" height="626" viewBox="0 0 927 626" fill="none" xmlns="http://www.w3.org/2000/svg">
<path d="M437.164 116.026C374.949 116.026 315.283 140.741 271.29 184.733C227.298 228.726 202.583 288.392 202.583 350.607C202.583 412.822 227.298 472.488 271.29 516.481C315.283 560.473 374.949 585.188 437.164 585.188L437.164 498.941C397.824 498.941 360.094 483.313 332.276 455.495C304.458 427.677 288.83 389.948 288.83 350.607C288.83 311.266 304.458 273.537 332.276 245.719C360.094 217.901 397.824 202.273 437.164 202.273V116.026Z" fill="#ACF780"/>
<path d="M671.745 350.607C671.745 381.413 665.678 411.917 653.889 440.377C642.1 468.838 624.821 494.698 603.038 516.481C581.255 538.264 555.395 555.543 526.935 567.332C498.474 579.12 467.97 585.188 437.164 585.188L437.164 498.941C456.644 498.941 475.933 495.104 493.929 487.65C511.926 480.195 528.278 469.269 542.052 455.495C555.826 441.721 566.753 425.369 574.207 407.372C581.662 389.375 585.498 370.086 585.498 350.607H671.745Z" fill="#49A261"/>
<path d="M575.048 160.827C604.997 182.586 629.371 211.125 646.178 244.109C662.984 277.094 671.745 313.588 671.745 350.607L585.498 350.607C585.498 327.198 579.958 304.122 569.331 283.265C558.704 262.407 543.291 244.361 524.353 230.602L575.048 160.827Z" fill="#381242"/>
<path d="M437.164 116.026C486.703 116.026 534.97 131.709 575.048 160.827L524.353 230.602C499.01 212.19 468.489 202.273 437.164 202.273V116.026Z" fill="#105D6C"/>
<path d="M715.63 574.264C715.63 568.231 720.52 563.341 726.553 563.341C732.586 563.341 737.477 568.231 737.477 574.264C737.477 580.297 732.586 585.188 726.553 585.188C720.52 585.188 715.63 580.297 715.63 574.264ZM734.746 574.264C734.746 569.74 731.078 566.072 726.553 566.072C722.028 566.072 718.36 569.74 718.36 574.264C718.36 578.789 722.028 582.457 726.553 582.457C731.078 582.457 734.746 578.789 734.746 574.264Z" fill="white"/>
<path d="M606.014 533.333L647.919 575.239H717.199" stroke="white" stroke-width="2"/>
<path d="M755.289 585.188V582.78C755.811 581.791 756.446 580.904 757.193 580.12C757.939 579.336 758.77 578.533 759.685 577.712C760.45 577.021 761.066 576.452 761.533 576.004C762.018 575.556 762.373 575.136 762.597 574.744C762.839 574.333 762.961 573.867 762.961 573.344C762.961 572.019 762.093 571.356 760.357 571.356C759.554 571.356 758.77 571.449 758.005 571.636C757.258 571.823 756.549 572.056 755.877 572.336V567.856C756.642 567.557 757.538 567.324 758.565 567.156C759.591 566.969 760.627 566.876 761.673 566.876C763.913 566.876 765.583 567.408 766.685 568.472C767.786 569.517 768.337 570.927 768.337 572.7C768.337 573.54 768.234 574.268 768.029 574.884C767.842 575.481 767.543 576.032 767.133 576.536C766.722 577.04 766.19 577.581 765.537 578.16C764.958 578.664 764.389 579.168 763.829 579.672C763.269 580.176 762.821 580.671 762.485 581.156H768.505V585.188H755.289ZM775.686 585.468C775.163 585.468 774.547 585.431 773.838 585.356C773.147 585.3 772.456 585.207 771.766 585.076C771.094 584.927 770.506 584.74 770.002 584.516V580.288C770.45 580.493 770.963 580.671 771.542 580.82C772.139 580.969 772.736 581.081 773.334 581.156C773.931 581.231 774.435 581.268 774.846 581.268C775.872 581.268 776.619 581.109 777.086 580.792C777.571 580.475 777.814 579.971 777.814 579.28C777.814 578.627 777.646 578.16 777.31 577.88C776.974 577.581 776.339 577.432 775.406 577.432H769.918V575.024L770.394 567.156H782.07L781.706 571.188H774.902L774.734 573.764H776.778C778.962 573.764 780.576 574.249 781.622 575.22C782.667 576.191 783.19 577.609 783.19 579.476C783.19 581.268 782.564 582.715 781.314 583.816C780.082 584.917 778.206 585.468 775.686 585.468ZM788.857 575.556C787.476 575.556 786.421 575.173 785.693 574.408C784.965 573.624 784.601 572.625 784.601 571.412C784.601 570.012 784.965 568.911 785.693 568.108C786.421 567.287 787.476 566.876 788.857 566.876C790.257 566.876 791.321 567.287 792.049 568.108C792.777 568.911 793.141 570.012 793.141 571.412C793.141 572.625 792.777 573.624 792.049 574.408C791.321 575.173 790.257 575.556 788.857 575.556ZM787.513 585.188L796.921 567.156H801.905L792.469 585.188H787.513ZM788.857 572.812C789.38 572.812 789.753 572.681 789.977 572.42C790.201 572.14 790.313 571.767 790.313 571.3C790.313 570.18 789.828 569.62 788.857 569.62C788.353 569.62 787.989 569.751 787.765 570.012C787.541 570.273 787.429 570.703 787.429 571.3C787.429 571.767 787.541 572.14 787.765 572.42C787.989 572.681 788.353 572.812 788.857 572.812ZM800.561 585.468C799.18 585.468 798.125 585.085 797.397 584.32C796.669 583.536 796.305 582.537 796.305 581.324C796.305 579.943 796.669 578.851 797.397 578.048C798.125 577.227 799.18 576.816 800.561 576.816C801.961 576.816 803.025 577.227 803.753 578.048C804.481 578.851 804.845 579.943 804.845 581.324C804.845 582.537 804.481 583.536 803.753 584.32C803.025 585.085 801.961 585.468 800.561 585.468ZM800.561 582.752C801.084 582.752 801.457 582.621 801.681 582.36C801.905 582.08 802.017 581.707 802.017 581.24C802.017 580.12 801.532 579.56 800.561 579.56C800.057 579.56 799.693 579.691 799.469 579.952C799.245 580.213 799.133 580.643 799.133 581.24C799.133 581.707 799.245 582.08 799.469 582.36C799.693 582.621 800.057 582.752 800.561 582.752Z" fill="#ACF780"/>
<path d="M755.293 615.188L759.229 604.884H761.181L765.085 615.188H763.293L762.269 612.532H758.125L757.101 615.188H755.293ZM758.397 611.188H761.981L760.189 606.468L758.397 611.188ZM766.393 606.02V604.58H768.297V606.02H766.393ZM766.537 615.188V608.932H765.385L765.545 607.604H768.281V615.188H766.537ZM770.315 615.188V607.604H771.915L772.011 608.484C772.374 608.249 772.806 608.036 773.307 607.844C773.809 607.652 774.305 607.519 774.795 607.444V608.772C774.497 608.825 774.171 608.905 773.819 609.012C773.478 609.108 773.153 609.22 772.843 609.348C772.534 609.465 772.273 609.588 772.059 609.716V615.188H770.315ZM778.889 615.348C778.206 615.348 777.604 615.231 777.081 614.996C776.558 614.761 776.153 614.372 775.865 613.828C775.577 613.284 775.433 612.553 775.433 611.636C775.433 610.729 775.588 609.967 775.897 609.348C776.206 608.719 776.633 608.244 777.177 607.924C777.732 607.604 778.356 607.444 779.049 607.444C779.508 607.444 779.913 607.497 780.265 607.604C780.628 607.711 780.974 607.876 781.305 608.1V604.404H783.049V615.188H781.561L781.449 614.436C781.108 614.745 780.734 614.975 780.329 615.124C779.924 615.273 779.444 615.348 778.889 615.348ZM779.353 614.036C780.132 614.036 780.782 613.769 781.305 613.236V609.444C780.804 608.996 780.174 608.772 779.417 608.772C778.681 608.772 778.126 609.017 777.753 609.508C777.38 609.999 777.193 610.713 777.193 611.652C777.193 612.559 777.364 613.183 777.705 613.524C778.057 613.865 778.606 614.036 779.353 614.036ZM785.065 615.188V607.604H786.665L786.761 608.484C787.124 608.249 787.556 608.036 788.057 607.844C788.559 607.652 789.055 607.519 789.545 607.444V608.772C789.247 608.825 788.921 608.905 788.569 609.012C788.228 609.108 787.903 609.22 787.593 609.348C787.284 609.465 787.023 609.588 786.809 609.716V615.188H785.065ZM794.135 615.348C792.77 615.348 791.767 615.007 791.127 614.324C790.498 613.641 790.183 612.665 790.183 611.396C790.183 610.127 790.503 609.151 791.143 608.468C791.783 607.785 792.78 607.444 794.135 607.444C795.5 607.444 796.503 607.785 797.143 608.468C797.783 609.151 798.103 610.127 798.103 611.396C798.103 612.665 797.783 613.641 797.143 614.324C796.514 615.007 795.511 615.348 794.135 615.348ZM794.135 613.876C794.935 613.876 795.5 613.684 795.831 613.3C796.172 612.905 796.343 612.271 796.343 611.396C796.343 610.521 796.172 609.892 795.831 609.508C795.5 609.124 794.935 608.932 794.135 608.932C793.346 608.932 792.78 609.124 792.439 609.508C792.108 609.892 791.943 610.521 791.943 611.396C791.943 612.271 792.108 612.905 792.439 613.3C792.78 613.684 793.346 613.876 794.135 613.876ZM799.8 618.644V607.604H801.304L801.4 608.356C801.741 608.047 802.114 607.817 802.52 607.668C802.925 607.519 803.405 607.444 803.96 607.444C805.048 607.444 805.896 607.743 806.504 608.34C807.112 608.927 807.416 609.903 807.416 611.268C807.416 612.633 807.101 613.657 806.472 614.34C805.842 615.012 804.984 615.348 803.896 615.348C802.978 615.348 802.194 615.135 801.544 614.708V618.644H799.8ZM803.448 614.036C804.92 614.036 805.656 613.108 805.656 611.252C805.656 610.356 805.49 609.721 805.16 609.348C804.829 608.964 804.274 608.772 803.496 608.772C802.717 608.772 802.066 609.039 801.544 609.572V613.364C801.789 613.567 802.061 613.732 802.36 613.86C802.669 613.977 803.032 614.036 803.448 614.036ZM812.496 615.188L816.432 604.884H818.384L822.288 615.188H820.496L819.472 612.532H815.328L814.304 615.188H812.496ZM815.6 611.188H819.184L817.392 606.468L815.6 611.188ZM823.596 606.02V604.58H825.5V606.02H823.596ZM823.74 615.188V608.932H822.588L822.748 607.604H825.484V615.188H823.74ZM827.519 615.188V607.604H829.119L829.215 608.484C829.577 608.249 830.009 608.036 830.511 607.844C831.012 607.652 831.508 607.519 831.999 607.444V608.772C831.7 608.825 831.375 608.905 831.023 609.012C830.681 609.108 830.356 609.22 830.047 609.348C829.737 609.465 829.476 609.588 829.263 609.716V615.188H827.519ZM836.092 615.348C835.409 615.348 834.807 615.231 834.284 614.996C833.761 614.761 833.356 614.372 833.068 613.828C832.78 613.284 832.636 612.553 832.636 611.636C832.636 610.729 832.791 609.967 833.1 609.348C833.409 608.719 833.836 608.244 834.38 607.924C834.935 607.604 835.559 607.444 836.252 607.444C836.711 607.444 837.116 607.497 837.468 607.604C837.831 607.711 838.177 607.876 838.508 608.1V604.404H840.252V615.188H838.764L838.652 614.436C838.311 614.745 837.937 614.975 837.532 615.124C837.127 615.273 836.647 615.348 836.092 615.348ZM836.556 614.036C837.335 614.036 837.985 613.769 838.508 613.236V609.444C838.007 608.996 837.377 608.772 836.62 608.772C835.884 608.772 835.329 609.017 834.956 609.508C834.583 609.999 834.396 610.713 834.396 611.652C834.396 612.559 834.567 613.183 834.908 613.524C835.26 613.865 835.809 614.036 836.556 614.036ZM842.269 615.188V607.604H843.869L843.965 608.484C844.327 608.249 844.759 608.036 845.261 607.844C845.762 607.652 846.258 607.519 846.749 607.444V608.772C846.45 608.825 846.125 608.905 845.773 609.012C845.431 609.108 845.106 609.22 844.797 609.348C844.487 609.465 844.226 609.588 844.013 609.716V615.188H842.269ZM851.338 615.348C849.973 615.348 848.97 615.007 848.33 614.324C847.701 613.641 847.386 612.665 847.386 611.396C847.386 610.127 847.706 609.151 848.346 608.468C848.986 607.785 849.983 607.444 851.338 607.444C852.703 607.444 853.706 607.785 854.346 608.468C854.986 609.151 855.306 610.127 855.306 611.396C855.306 612.665 854.986 613.641 854.346 614.324C853.717 615.007 852.714 615.348 851.338 615.348ZM851.338 613.876C852.138 613.876 852.703 613.684 853.034 613.3C853.375 612.905 853.546 612.271 853.546 611.396C853.546 610.521 853.375 609.892 853.034 609.508C852.703 609.124 852.138 608.932 851.338 608.932C850.549 608.932 849.983 609.124 849.642 609.508C849.311 609.892 849.146 610.521 849.146 611.396C849.146 612.271 849.311 612.905 849.642 613.3C849.983 613.684 850.549 613.876 851.338 613.876ZM857.003 618.644V607.604H858.507L858.603 608.356C858.944 608.047 859.318 607.817 859.723 607.668C860.128 607.519 860.608 607.444 861.163 607.444C862.251 607.444 863.099 607.743 863.707 608.34C864.315 608.927 864.619 609.903 864.619 611.268C864.619 612.633 864.304 613.657 863.675 614.34C863.046 615.012 862.187 615.348 861.099 615.348C860.182 615.348 859.398 615.135 858.747 614.708V618.644H857.003ZM860.651 614.036C862.123 614.036 862.859 613.108 862.859 611.252C862.859 610.356 862.694 609.721 862.363 609.348C862.032 608.964 861.478 608.772 860.699 608.772C859.92 608.772 859.27 609.039 858.747 609.572V613.364C858.992 613.567 859.264 613.732 859.563 613.86C859.872 613.977 860.235 614.036 860.651 614.036ZM868.765 615.348C868.243 615.348 867.741 615.311 867.261 615.236C866.792 615.161 866.403 615.071 866.093 614.964V613.492C866.456 613.631 866.856 613.737 867.293 613.812C867.731 613.887 868.147 613.924 868.541 613.924C869.139 613.924 869.565 613.871 869.821 613.764C870.077 613.657 870.205 613.449 870.205 613.14C870.205 612.916 870.125 612.74 869.965 612.612C869.816 612.484 869.587 612.367 869.277 612.26C868.979 612.153 868.595 612.025 868.125 611.876C867.677 611.727 867.288 611.567 866.957 611.396C866.627 611.215 866.371 610.985 866.189 610.708C866.008 610.431 865.917 610.068 865.917 609.62C865.917 608.927 866.168 608.393 866.669 608.02C867.171 607.636 867.976 607.444 869.085 607.444C869.523 607.444 869.939 607.476 870.333 607.54C870.728 607.604 871.064 607.684 871.341 607.78V609.236C871.043 609.119 870.712 609.028 870.349 608.964C869.997 608.9 869.667 608.868 869.357 608.868C868.803 608.868 868.381 608.916 868.093 609.012C867.816 609.108 867.677 609.3 867.677 609.588C867.677 609.887 867.821 610.1 868.109 610.228C868.408 610.345 868.883 610.511 869.533 610.724C870.131 610.905 870.605 611.097 870.957 611.3C871.309 611.503 871.56 611.748 871.709 612.036C871.869 612.313 871.949 612.676 871.949 613.124C871.949 613.871 871.677 614.431 871.133 614.804C870.589 615.167 869.8 615.348 868.765 615.348ZM879.187 616.34C878.664 615.871 878.243 615.311 877.923 614.66C877.603 614.009 877.373 613.311 877.235 612.564C877.096 611.817 877.027 611.076 877.027 610.34C877.027 609.604 877.096 608.868 877.235 608.132C877.373 607.385 877.603 606.687 877.923 606.036C878.243 605.375 878.664 604.809 879.187 604.34H881.155C880.312 605.076 879.704 605.956 879.331 606.98C878.968 607.993 878.787 609.113 878.787 610.34C878.787 611.567 878.968 612.692 879.331 613.716C879.704 614.729 880.312 615.604 881.155 616.34H879.187ZM882.23 615.188V614.324C882.507 613.673 882.891 613.087 883.382 612.564C883.883 612.041 884.416 611.535 884.982 611.044C885.408 610.671 885.76 610.356 886.038 610.1C886.326 609.833 886.55 609.593 886.71 609.38C886.87 609.167 886.982 608.948 887.046 608.724C887.11 608.489 887.142 608.217 887.142 607.908C887.142 607.353 886.982 606.932 886.662 606.644C886.342 606.356 885.808 606.212 885.062 606.212C884.656 606.212 884.24 606.255 883.814 606.34C883.398 606.425 882.998 606.543 882.614 606.692V605.156C882.987 605.028 883.43 604.927 883.942 604.852C884.454 604.767 884.939 604.724 885.398 604.724C886.55 604.724 887.419 605.007 888.006 605.572C888.592 606.137 888.886 606.911 888.886 607.892C888.886 608.383 888.8 608.82 888.63 609.204C888.459 609.577 888.224 609.935 887.926 610.276C887.627 610.607 887.28 610.948 886.886 611.3C886.395 611.727 885.931 612.143 885.494 612.548C885.067 612.943 884.72 613.375 884.454 613.844H888.998V615.188H882.23ZM893.282 615.348C892.824 615.348 892.322 615.311 891.778 615.236C891.234 615.161 890.781 615.044 890.418 614.884V613.364C890.792 613.524 891.218 613.647 891.698 613.732C892.178 613.817 892.632 613.86 893.058 613.86C893.88 613.86 894.482 613.721 894.866 613.444C895.261 613.156 895.458 612.687 895.458 612.036C895.458 611.439 895.32 610.996 895.042 610.708C894.765 610.42 894.221 610.276 893.41 610.276H890.37V609.22L890.642 604.884H896.498L896.354 606.228H892.114L891.938 608.932H893.682C894.909 608.932 895.805 609.193 896.37 609.716C896.936 610.239 897.218 611.023 897.218 612.068C897.218 613.081 896.888 613.881 896.226 614.468C895.565 615.055 894.584 615.348 893.282 615.348ZM903.133 615.476C902.045 615.476 901.17 615.268 900.509 614.852C899.847 614.425 899.362 613.817 899.053 613.028C898.754 612.228 898.605 611.273 898.605 610.164C898.605 609.012 898.749 608.031 899.037 607.22C899.335 606.409 899.815 605.791 900.477 605.364C901.138 604.937 902.023 604.724 903.133 604.724C904.242 604.724 905.122 604.937 905.773 605.364C906.434 605.791 906.909 606.409 907.197 607.22C907.495 608.031 907.645 609.012 907.645 610.164C907.645 611.273 907.495 612.228 907.197 613.028C906.898 613.817 906.418 614.425 905.757 614.852C905.095 615.268 904.221 615.476 903.133 615.476ZM903.133 613.988C904.157 613.988 904.871 613.652 905.277 612.98C905.682 612.297 905.885 611.359 905.885 610.164C905.885 608.895 905.687 607.919 905.293 607.236C904.898 606.553 904.178 606.212 903.133 606.212C902.087 606.212 901.362 606.553 900.957 607.236C900.562 607.919 900.365 608.895 900.365 610.164C900.365 611.359 900.567 612.297 900.973 612.98C901.378 613.652 902.098 613.988 903.133 613.988ZM909.347 615.188V604.884H911.139L914.403 611.556L917.651 604.884H919.443V615.188H917.715V607.716L914.931 613.412H913.875L911.075 607.716V615.188H909.347ZM920.816 616.34C921.669 615.604 922.277 614.729 922.64 613.716C923.003 612.692 923.184 611.567 923.184 610.34C923.184 609.113 923.003 607.993 922.64 606.98C922.277 605.956 921.669 605.076 920.816 604.34H922.8C923.323 604.809 923.739 605.375 924.048 606.036C924.368 606.687 924.597 607.385 924.736 608.132C924.875 608.868 924.944 609.604 924.944 610.34C924.944 611.076 924.875 611.817 924.736 612.564C924.597 613.311 924.368 614.009 924.048 614.66C923.739 615.311 923.323 615.871 922.8 616.34H920.816Z" fill="#E0E0E0"/>
<path d="M88.335 348.129C88.335 354.162 83.4444 359.053 77.4114 359.053C71.3785 359.053 66.4879 354.162 66.4879 348.129C66.4879 342.096 71.3785 337.206 77.4114 337.206C83.4444 337.206 88.335 342.096 88.335 348.129ZM69.2188 348.129C69.2188 352.654 72.8867 356.322 77.4114 356.322C81.9361 356.322 85.6041 352.654 85.6041 348.129C85.6041 343.604 81.9361 339.936 77.4114 339.936C72.8867 339.936 69.2188 343.604 69.2188 348.129Z" fill="white"/>
<line x1="200.016" y1="347.25" x2="86.9573" y2="347.25" stroke="white" stroke-width="2"/>
<path d="M6.86415 359.333C6.34148 359.333 5.72548 359.295 5.01615 359.221C4.32548 359.165 3.63482 359.071 2.94415 358.941C2.27215 358.791 1.68415 358.605 1.18015 358.381V354.153C1.62815 354.358 2.14148 354.535 2.72015 354.685C3.31748 354.834 3.91482 354.946 4.51215 355.021C5.10948 355.095 5.61348 355.133 6.02415 355.133C7.05082 355.133 7.79748 354.974 8.26415 354.657C8.74948 354.339 8.99215 353.835 8.99215 353.145C8.99215 352.491 8.82415 352.025 8.48815 351.745C8.15215 351.446 7.51748 351.297 6.58415 351.297H1.09615V348.889L1.57215 341.021H13.2481L12.8841 345.053H6.08015L5.91215 347.629H7.95615C10.1401 347.629 11.7548 348.114 12.8001 349.085C13.8455 350.055 14.3681 351.474 14.3681 353.341C14.3681 355.133 13.7428 356.579 12.4921 357.681C11.2601 358.782 9.38415 359.333 6.86415 359.333ZM24.4037 359.333C22.3317 359.333 20.6611 358.978 19.3917 358.269C18.1411 357.541 17.2264 356.486 16.6477 355.105C16.0691 353.723 15.7797 352.034 15.7797 350.037C15.7797 348.039 16.0691 346.35 16.6477 344.969C17.2264 343.587 18.1411 342.542 19.3917 341.833C20.6611 341.105 22.3317 340.741 24.4037 340.741C27.5024 340.741 29.7144 341.543 31.0397 343.149C32.3651 344.735 33.0277 347.031 33.0277 350.037C33.0277 353.023 32.3651 355.319 31.0397 356.925C29.7144 358.53 27.5024 359.333 24.4037 359.333ZM24.4037 354.853C25.6171 354.853 26.4571 354.451 26.9237 353.649C27.4091 352.827 27.6517 351.623 27.6517 350.037C27.6517 348.431 27.4091 347.227 26.9237 346.425C26.4571 345.622 25.6171 345.221 24.4037 345.221C23.1904 345.221 22.3411 345.622 21.8557 346.425C21.3891 347.227 21.1557 348.431 21.1557 350.037C21.1557 351.623 21.3891 352.827 21.8557 353.649C22.3411 354.451 23.1904 354.853 24.4037 354.853ZM38.6842 349.421C37.3028 349.421 36.2482 349.038 35.5202 348.273C34.7922 347.489 34.4282 346.49 34.4282 345.277C34.4282 343.877 34.7922 342.775 35.5202 341.973C36.2482 341.151 37.3028 340.741 38.6842 340.741C40.0842 340.741 41.1482 341.151 41.8762 341.973C42.6042 342.775 42.9682 343.877 42.9682 345.277C42.9682 346.49 42.6042 347.489 41.8762 348.273C41.1482 349.038 40.0842 349.421 38.6842 349.421ZM37.3402 359.053L46.7482 341.021H51.7322L42.2962 359.053H37.3402ZM38.6842 346.677C39.2068 346.677 39.5802 346.546 39.8042 346.285C40.0282 346.005 40.1402 345.631 40.1402 345.165C40.1402 344.045 39.6548 343.485 38.6842 343.485C38.1802 343.485 37.8162 343.615 37.5922 343.877C37.3682 344.138 37.2562 344.567 37.2562 345.165C37.2562 345.631 37.3682 346.005 37.5922 346.285C37.8162 346.546 38.1802 346.677 38.6842 346.677ZM50.3882 359.333C49.0068 359.333 47.9522 358.95 47.2242 358.185C46.4962 357.401 46.1322 356.402 46.1322 355.189C46.1322 353.807 46.4962 352.715 47.2242 351.913C47.9522 351.091 49.0068 350.681 50.3882 350.681C51.7882 350.681 52.8522 351.091 53.5802 351.913C54.3082 352.715 54.6722 353.807 54.6722 355.189C54.6722 356.402 54.3082 357.401 53.5802 358.185C52.8522 358.95 51.7882 359.333 50.3882 359.333ZM50.3882 356.617C50.9108 356.617 51.2842 356.486 51.5082 356.225C51.7322 355.945 51.8442 355.571 51.8442 355.105C51.8442 353.985 51.3588 353.425 50.3882 353.425C49.8842 353.425 49.5202 353.555 49.2962 353.817C49.0722 354.078 48.9602 354.507 48.9602 355.105C48.9602 355.571 49.0722 355.945 49.2962 356.225C49.5202 356.486 49.8842 356.617 50.3882 356.617Z" fill="#ACF780"/>
<path d="M1.40415 389.053V378.749H3.14815V387.709H8.42815V389.053H1.40415ZM9.8879 379.885V378.445H11.7919V379.885H9.8879ZM10.0319 389.053V382.797H8.8799L9.0399 381.469H11.7759V389.053H10.0319ZM21.3944 392.925C20.7224 392.925 20.2157 392.754 19.8744 392.413C19.5331 392.071 19.3624 391.538 19.3624 390.813V388.573C18.7117 388.999 17.9277 389.213 17.0104 389.213C15.9224 389.213 15.0637 388.919 14.4344 388.333C13.8051 387.735 13.4904 386.754 13.4904 385.389C13.4904 384.023 13.7997 383.005 14.4184 382.333C15.0477 381.65 15.8957 381.309 16.9624 381.309C17.5171 381.309 17.9917 381.383 18.3864 381.533C18.7917 381.682 19.1651 381.911 19.5064 382.221L19.6184 381.469H21.1064V390.685C21.1064 391.015 21.1597 391.245 21.2664 391.373C21.3837 391.501 21.6024 391.565 21.9224 391.565C22.0291 391.565 22.1411 391.554 22.2584 391.533C22.3864 391.511 22.4984 391.49 22.5944 391.469V392.733C22.4131 392.797 22.2317 392.845 22.0504 392.877C21.8691 392.909 21.6504 392.925 21.3944 392.925ZM17.4584 387.901C17.8744 387.901 18.2371 387.842 18.5464 387.725C18.8557 387.597 19.1277 387.431 19.3624 387.229V383.437C18.8397 382.903 18.1944 382.637 17.4264 382.637C16.6477 382.637 16.0877 382.871 15.7464 383.341C15.4157 383.799 15.2504 384.477 15.2504 385.373C15.2504 386.311 15.4317 386.967 15.7944 387.341C16.1571 387.714 16.7117 387.901 17.4584 387.901ZM25.8589 389.213C24.9522 389.213 24.2536 388.962 23.7629 388.461C23.2829 387.959 23.0429 387.223 23.0429 386.253V381.469H24.7869V386.253C24.7869 386.818 24.9256 387.234 25.2029 387.501C25.4802 387.767 25.9069 387.901 26.4829 387.901C26.9096 387.901 27.3042 387.821 27.6669 387.661C28.0296 387.501 28.3442 387.287 28.6109 387.021V381.469H30.3389V389.053H28.7549L28.6749 388.269C28.3336 388.535 27.9282 388.759 27.4589 388.941C26.9896 389.122 26.4562 389.213 25.8589 389.213ZM33.0129 379.885V378.445H34.9169V379.885H33.0129ZM33.1569 389.053V382.797H32.0049L32.1649 381.469H34.9009V389.053H33.1569ZM40.0714 389.213C39.3887 389.213 38.7861 389.095 38.2634 388.861C37.7407 388.626 37.3354 388.237 37.0474 387.693C36.7594 387.149 36.6154 386.418 36.6154 385.501C36.6154 384.594 36.7701 383.831 37.0794 383.213C37.3887 382.583 37.8154 382.109 38.3594 381.789C38.9141 381.469 39.5381 381.309 40.2314 381.309C40.6901 381.309 41.0954 381.362 41.4474 381.469C41.8101 381.575 42.1567 381.741 42.4874 381.965V378.269H44.2314V389.053H42.7434L42.6314 388.301C42.2901 388.61 41.9167 388.839 41.5114 388.989C41.1061 389.138 40.6261 389.213 40.0714 389.213ZM40.5354 387.901C41.3141 387.901 41.9647 387.634 42.4874 387.101V383.309C41.9861 382.861 41.3567 382.637 40.5994 382.637C39.8634 382.637 39.3087 382.882 38.9354 383.373C38.5621 383.863 38.3754 384.578 38.3754 385.517C38.3754 386.423 38.5461 387.047 38.8874 387.389C39.2394 387.73 39.7887 387.901 40.5354 387.901ZM46.8879 379.885V378.445H48.7919V379.885H46.8879ZM47.0319 389.053V382.797H45.8799L46.0399 381.469H48.7759V389.053H47.0319ZM53.7064 389.213C52.8957 389.213 52.2877 388.999 51.8824 388.573C51.4877 388.135 51.2904 387.543 51.2904 386.797V382.829H50.1704V381.469H51.2904V379.725L53.0184 379.197V381.469H55.0344L54.9224 382.829H53.0184V386.701C53.0184 387.138 53.1197 387.447 53.3224 387.629C53.5251 387.799 53.8557 387.885 54.3144 387.885C54.6024 387.885 54.9064 387.831 55.2264 387.725V388.957C54.8104 389.127 54.3037 389.213 53.7064 389.213ZM57.5536 391.869C56.9776 391.869 56.487 391.794 56.0816 391.645V390.349C56.263 390.413 56.4283 390.455 56.5776 390.477C56.7376 390.498 56.8976 390.509 57.0576 390.509C57.3883 390.509 57.655 390.455 57.8576 390.349C58.0603 390.242 58.2363 390.071 58.3856 389.837C58.5456 389.613 58.7163 389.319 58.8976 388.957L55.5216 381.469H57.3296L59.7616 387.101L62.2256 381.469H64.0176L60.9296 388.621C60.663 389.261 60.375 389.821 60.0656 390.301C59.767 390.791 59.415 391.175 59.0096 391.453C58.615 391.73 58.1296 391.869 57.5536 391.869ZM70.9316 390.205C70.409 389.735 69.9876 389.175 69.6676 388.525C69.3476 387.874 69.1183 387.175 68.9796 386.429C68.841 385.682 68.7716 384.941 68.7716 384.205C68.7716 383.469 68.841 382.733 68.9796 381.997C69.1183 381.25 69.3476 380.551 69.6676 379.901C69.9876 379.239 70.409 378.674 70.9316 378.205H72.8996C72.057 378.941 71.449 379.821 71.0756 380.845C70.713 381.858 70.5316 382.978 70.5316 384.205C70.5316 385.431 70.713 386.557 71.0756 387.581C71.449 388.594 72.057 389.469 72.8996 390.205H70.9316ZM76.8868 389.213C76.4281 389.213 75.9268 389.175 75.3828 389.101C74.8388 389.026 74.3854 388.909 74.0228 388.749V387.229C74.3961 387.389 74.8228 387.511 75.3028 387.597C75.7828 387.682 76.2361 387.725 76.6628 387.725C77.4841 387.725 78.0868 387.586 78.4708 387.309C78.8654 387.021 79.0628 386.551 79.0628 385.901C79.0628 385.303 78.9241 384.861 78.6468 384.573C78.3694 384.285 77.8254 384.141 77.0148 384.141H73.9748V383.085L74.2468 378.749H80.1028L79.9588 380.093H75.7188L75.5428 382.797H77.2868C78.5134 382.797 79.4094 383.058 79.9748 383.581C80.5401 384.103 80.8228 384.887 80.8228 385.933C80.8228 386.946 80.4921 387.746 79.8308 388.333C79.1694 388.919 78.1881 389.213 76.8868 389.213ZM86.7371 389.341C85.6491 389.341 84.7745 389.133 84.1131 388.717C83.4518 388.29 82.9665 387.682 82.6571 386.893C82.3585 386.093 82.2091 385.138 82.2091 384.029C82.2091 382.877 82.3531 381.895 82.6411 381.085C82.9398 380.274 83.4198 379.655 84.0811 379.229C84.7425 378.802 85.6278 378.589 86.7371 378.589C87.8465 378.589 88.7265 378.802 89.3771 379.229C90.0385 379.655 90.5131 380.274 90.8011 381.085C91.0998 381.895 91.2491 382.877 91.2491 384.029C91.2491 385.138 91.0998 386.093 90.8011 386.893C90.5025 387.682 90.0225 388.29 89.3611 388.717C88.6998 389.133 87.8251 389.341 86.7371 389.341ZM86.7371 387.853C87.7611 387.853 88.4758 387.517 88.8811 386.845C89.2865 386.162 89.4891 385.223 89.4891 384.029C89.4891 382.759 89.2918 381.783 88.8971 381.101C88.5025 380.418 87.7825 380.077 86.7371 380.077C85.6918 380.077 84.9665 380.418 84.5611 381.101C84.1665 381.783 83.9691 382.759 83.9691 384.029C83.9691 385.223 84.1718 386.162 84.5771 386.845C84.9825 387.517 85.7025 387.853 86.7371 387.853ZM97.159 389.341C96.071 389.341 95.1964 389.133 94.535 388.717C93.8737 388.29 93.3884 387.682 93.079 386.893C92.7804 386.093 92.631 385.138 92.631 384.029C92.631 382.877 92.775 381.895 93.063 381.085C93.3617 380.274 93.8417 379.655 94.503 379.229C95.1644 378.802 96.0497 378.589 97.159 378.589C98.2684 378.589 99.1484 378.802 99.799 379.229C100.46 379.655 100.935 380.274 101.223 381.085C101.522 381.895 101.671 382.877 101.671 384.029C101.671 385.138 101.522 386.093 101.223 386.893C100.924 387.682 100.444 388.29 99.783 388.717C99.1217 389.133 98.247 389.341 97.159 389.341ZM97.159 387.853C98.183 387.853 98.8977 387.517 99.303 386.845C99.7084 386.162 99.911 385.223 99.911 384.029C99.911 382.759 99.7137 381.783 99.319 381.101C98.9244 380.418 98.2044 380.077 97.159 380.077C96.1137 380.077 95.3884 380.418 94.983 381.101C94.5884 381.783 94.391 382.759 94.391 384.029C94.391 385.223 94.5937 386.162 94.999 386.845C95.4044 387.517 96.1244 387.853 97.159 387.853ZM103.373 389.053V378.749H105.165L108.429 385.421L111.677 378.749H113.469V389.053H111.741V381.581L108.957 387.277H107.901L105.101 381.581V389.053H103.373ZM114.842 390.205C115.696 389.469 116.304 388.594 116.666 387.581C117.029 386.557 117.21 385.431 117.21 384.205C117.21 382.978 117.029 381.858 116.666 380.845C116.304 379.821 115.696 378.941 114.842 378.205H116.826C117.349 378.674 117.765 379.239 118.074 379.901C118.394 380.551 118.624 381.25 118.762 381.997C118.901 382.733 118.97 383.469 118.97 384.205C118.97 384.941 118.901 385.682 118.762 386.429C118.624 387.175 118.394 387.874 118.074 388.525C117.765 389.175 117.349 389.735 116.826 390.205H114.842Z" fill="#E0E0E0"/>
<path d="M743.665 244.249C743.665 250.282 748.556 255.173 754.589 255.173C760.622 255.173 765.512 250.282 765.512 244.249C765.512 238.216 760.622 233.325 754.589 233.325C748.556 233.325 743.665 238.216 743.665 244.249ZM762.781 244.249C762.781 248.774 759.113 252.442 754.589 252.442C750.064 252.442 746.396 248.774 746.396 244.249C746.396 239.724 750.064 236.056 754.589 236.056C759.113 236.056 762.781 239.724 762.781 244.249Z" fill="white"/>
<path d="M678.412 267.775L746.252 247.604" stroke="white" stroke-width="2"/>
<path d="M787.896 255.172V242.012L784.9 242.46V238.064L793.16 236.86V255.172H787.896ZM800.894 255.452C800.372 255.452 799.756 255.415 799.046 255.34C798.356 255.284 797.665 255.191 796.974 255.06C796.302 254.911 795.714 254.724 795.21 254.5V250.272C795.658 250.478 796.172 250.655 796.75 250.804C797.348 250.954 797.945 251.066 798.542 251.14C799.14 251.215 799.644 251.252 800.054 251.252C801.081 251.252 801.828 251.094 802.294 250.776C802.78 250.459 803.022 249.955 803.022 249.264C803.022 248.611 802.854 248.144 802.518 247.864C802.182 247.566 801.548 247.416 800.614 247.416H795.126V245.008L795.602 237.14H807.278L806.914 241.172H800.11L799.942 243.748H801.986C804.17 243.748 805.785 244.234 806.83 245.204C807.876 246.175 808.398 247.594 808.398 249.46C808.398 251.252 807.773 252.699 806.522 253.8C805.29 254.902 803.414 255.452 800.894 255.452ZM814.066 245.54C812.684 245.54 811.63 245.158 810.902 244.392C810.174 243.608 809.81 242.61 809.81 241.396C809.81 239.996 810.174 238.895 810.902 238.092C811.63 237.271 812.684 236.86 814.066 236.86C815.466 236.86 816.53 237.271 817.258 238.092C817.986 238.895 818.35 239.996 818.35 241.396C818.35 242.61 817.986 243.608 817.258 244.392C816.53 245.158 815.466 245.54 814.066 245.54ZM812.722 255.172L822.13 237.14H827.114L817.678 255.172H812.722ZM814.066 242.796C814.588 242.796 814.962 242.666 815.186 242.404C815.41 242.124 815.522 241.751 815.522 241.284C815.522 240.164 815.036 239.604 814.066 239.604C813.562 239.604 813.198 239.735 812.974 239.996C812.75 240.258 812.638 240.687 812.638 241.284C812.638 241.751 812.75 242.124 812.974 242.404C813.198 242.666 813.562 242.796 814.066 242.796ZM825.77 255.452C824.388 255.452 823.334 255.07 822.606 254.304C821.878 253.52 821.514 252.522 821.514 251.308C821.514 249.927 821.878 248.835 822.606 248.032C823.334 247.211 824.388 246.8 825.77 246.8C827.17 246.8 828.234 247.211 828.962 248.032C829.69 248.835 830.054 249.927 830.054 251.308C830.054 252.522 829.69 253.52 828.962 254.304C828.234 255.07 827.17 255.452 825.77 255.452ZM825.77 252.736C826.292 252.736 826.666 252.606 826.89 252.344C827.114 252.064 827.226 251.691 827.226 251.224C827.226 250.104 826.74 249.544 825.77 249.544C825.266 249.544 824.902 249.675 824.678 249.936C824.454 250.198 824.342 250.627 824.342 251.224C824.342 251.691 824.454 252.064 824.678 252.344C824.902 252.606 825.266 252.736 825.77 252.736Z" fill="#ACF780"/>
<path d="M788.895 285.172V274.868H790.687L793.951 281.54L797.199 274.868H798.991V285.172H797.263V277.7L794.479 283.396H793.423L790.623 277.7V285.172H788.895ZM803.372 285.332C802.892 285.332 802.444 285.247 802.028 285.076C801.623 284.906 801.298 284.65 801.052 284.308C800.807 283.956 800.684 283.524 800.684 283.012C800.684 282.287 800.93 281.706 801.42 281.268C801.922 280.82 802.69 280.596 803.724 280.596H806.156V280.26C806.156 279.898 806.098 279.61 805.98 279.396C805.874 279.183 805.671 279.028 805.372 278.932C805.084 278.836 804.658 278.788 804.092 278.788C803.196 278.788 802.359 278.922 801.58 279.188V277.892C801.922 277.754 802.338 277.642 802.828 277.556C803.319 277.471 803.847 277.428 804.412 277.428C805.522 277.428 806.364 277.652 806.94 278.1C807.527 278.548 807.82 279.279 807.82 280.292V285.172H806.332L806.22 284.404C805.911 284.703 805.527 284.932 805.068 285.092C804.62 285.252 804.055 285.332 803.372 285.332ZM803.836 284.084C804.359 284.084 804.812 283.999 805.196 283.828C805.591 283.647 805.911 283.407 806.156 283.108V281.78H803.756C803.244 281.78 802.871 281.882 802.636 282.084C802.412 282.276 802.3 282.575 802.3 282.98C802.3 283.375 802.434 283.658 802.7 283.828C802.967 283.999 803.346 284.084 803.836 284.084ZM809.754 285.172V277.588H811.354L811.45 278.468C811.813 278.234 812.245 278.02 812.746 277.828C813.248 277.636 813.744 277.503 814.234 277.428V278.756C813.936 278.81 813.61 278.89 813.258 278.996C812.917 279.092 812.592 279.204 812.282 279.332C811.973 279.45 811.712 279.572 811.498 279.7V285.172H809.754ZM815.504 285.172V274.388H817.248V280.628L820.432 277.588H822.432L819.344 280.644L822.608 285.172H820.768L818.256 281.572L817.248 282.532V285.172H815.504ZM826.891 285.332C825.569 285.332 824.545 285.007 823.819 284.356C823.094 283.706 822.731 282.708 822.731 281.364C822.731 280.148 823.041 279.188 823.659 278.484C824.278 277.78 825.217 277.428 826.475 277.428C827.627 277.428 828.491 277.732 829.067 278.34C829.654 278.938 829.947 279.711 829.947 280.66V282.068H824.395C824.481 282.804 824.747 283.311 825.195 283.588C825.643 283.866 826.326 284.004 827.243 284.004C827.627 284.004 828.022 283.967 828.427 283.892C828.833 283.818 829.185 283.722 829.483 283.604V284.884C829.142 285.034 828.747 285.146 828.299 285.22C827.862 285.295 827.393 285.332 826.891 285.332ZM824.395 280.932H828.411V280.404C828.411 279.882 828.267 279.476 827.979 279.188C827.691 278.89 827.206 278.74 826.523 278.74C825.713 278.74 825.153 278.916 824.843 279.268C824.545 279.62 824.395 280.175 824.395 280.932ZM834.541 285.332C833.73 285.332 833.122 285.119 832.717 284.692C832.322 284.255 832.125 283.663 832.125 282.916V278.948H831.005V277.588H832.125V275.844L833.853 275.316V277.588H835.869L835.757 278.948H833.853V282.82C833.853 283.258 833.954 283.567 834.157 283.748C834.36 283.919 834.69 284.004 835.149 284.004C835.437 284.004 835.741 283.951 836.061 283.844V285.076C835.645 285.247 835.138 285.332 834.541 285.332ZM838.035 276.004V274.564H839.939V276.004H838.035ZM838.179 285.172V278.916H837.027L837.187 277.588H839.923V285.172H838.179ZM841.958 285.172V277.588H843.558L843.638 278.388C843.979 278.122 844.384 277.898 844.854 277.716C845.334 277.524 845.862 277.428 846.438 277.428C847.419 277.428 848.134 277.658 848.582 278.116C849.03 278.575 849.254 279.29 849.254 280.26V285.172H847.526V280.34C847.526 279.754 847.403 279.343 847.158 279.108C846.923 278.874 846.475 278.756 845.814 278.756C845.419 278.756 845.03 278.836 844.646 278.996C844.272 279.156 843.958 279.364 843.702 279.62V285.172H841.958ZM854.28 287.988C853.714 287.988 853.149 287.951 852.584 287.876C852.018 287.812 851.538 287.711 851.144 287.572V286.228C851.57 286.367 852.061 286.474 852.616 286.548C853.17 286.623 853.698 286.66 854.2 286.66C854.968 286.66 855.528 286.618 855.88 286.532C856.232 286.447 856.408 286.255 856.408 285.956C856.408 285.732 856.322 285.572 856.152 285.476C855.981 285.391 855.656 285.348 855.176 285.348H853.128C851.752 285.348 851.064 284.863 851.064 283.892C851.064 283.583 851.154 283.295 851.336 283.028C851.517 282.762 851.805 282.559 852.2 282.42C851.762 282.207 851.437 281.914 851.224 281.54C851.021 281.167 850.92 280.719 850.92 280.196C850.92 279.226 851.208 278.522 851.784 278.084C852.37 277.647 853.245 277.428 854.408 277.428C854.653 277.428 854.909 277.45 855.176 277.492C855.442 277.524 855.65 277.556 855.8 277.588H858.584L858.536 278.724H857.256C857.458 278.895 857.608 279.108 857.704 279.364C857.8 279.62 857.848 279.898 857.848 280.196C857.848 281.007 857.602 281.647 857.112 282.116C856.621 282.575 855.88 282.804 854.888 282.804C854.717 282.804 854.557 282.799 854.408 282.788C854.269 282.767 854.114 282.746 853.944 282.724C853.624 282.756 853.336 282.842 853.08 282.98C852.824 283.119 852.696 283.306 852.696 283.54C852.696 283.7 852.76 283.818 852.888 283.892C853.016 283.956 853.229 283.988 853.528 283.988H855.656C856.413 283.988 856.994 284.154 857.4 284.484C857.816 284.804 858.024 285.274 858.024 285.892C858.024 286.639 857.698 287.172 857.048 287.492C856.408 287.823 855.485 287.988 854.28 287.988ZM854.408 281.7C855.101 281.7 855.581 281.583 855.848 281.348C856.125 281.114 856.264 280.714 856.264 280.148C856.264 279.583 856.125 279.172 855.848 278.916C855.581 278.66 855.101 278.532 854.408 278.532C853.757 278.532 853.282 278.655 852.984 278.9C852.685 279.146 852.536 279.562 852.536 280.148C852.536 280.692 852.674 281.087 852.952 281.332C853.24 281.578 853.725 281.7 854.408 281.7ZM865.594 286.324C865.072 285.855 864.65 285.295 864.33 284.644C864.01 283.994 863.781 283.295 863.642 282.548C863.504 281.802 863.434 281.06 863.434 280.324C863.434 279.588 863.504 278.852 863.642 278.116C863.781 277.37 864.01 276.671 864.33 276.02C864.65 275.359 865.072 274.794 865.594 274.324H867.562C866.72 275.06 866.112 275.94 865.738 276.964C865.376 277.978 865.194 279.098 865.194 280.324C865.194 281.551 865.376 282.676 865.738 283.7C866.112 284.714 866.72 285.588 867.562 286.324H865.594ZM870.302 285.172V276.404L868.638 276.692V275.236L872.03 274.708V285.172H870.302ZM876.659 285.332C876.2 285.332 875.699 285.295 875.155 285.22C874.611 285.146 874.158 285.028 873.795 284.868V283.348C874.168 283.508 874.595 283.631 875.075 283.716C875.555 283.802 876.008 283.844 876.435 283.844C877.256 283.844 877.859 283.706 878.243 283.428C878.638 283.14 878.835 282.671 878.835 282.02C878.835 281.423 878.696 280.98 878.419 280.692C878.142 280.404 877.598 280.26 876.787 280.26H873.747V279.204L874.019 274.868H879.875L879.731 276.212H875.491L875.315 278.916H877.059C878.286 278.916 879.182 279.178 879.747 279.7C880.312 280.223 880.595 281.007 880.595 282.052C880.595 283.066 880.264 283.866 879.603 284.452C878.942 285.039 877.96 285.332 876.659 285.332ZM886.509 285.46C885.421 285.46 884.547 285.252 883.885 284.836C883.224 284.41 882.739 283.802 882.429 283.012C882.131 282.212 881.981 281.258 881.981 280.148C881.981 278.996 882.125 278.015 882.413 277.204C882.712 276.394 883.192 275.775 883.853 275.348C884.515 274.922 885.4 274.708 886.509 274.708C887.619 274.708 888.499 274.922 889.149 275.348C889.811 275.775 890.285 276.394 890.573 277.204C890.872 278.015 891.021 278.996 891.021 280.148C891.021 281.258 890.872 282.212 890.573 283.012C890.275 283.802 889.795 284.41 889.133 284.836C888.472 285.252 887.597 285.46 886.509 285.46ZM886.509 283.972C887.533 283.972 888.248 283.636 888.653 282.964C889.059 282.282 889.261 281.343 889.261 280.148C889.261 278.879 889.064 277.903 888.669 277.22C888.275 276.538 887.555 276.196 886.509 276.196C885.464 276.196 884.739 276.538 884.333 277.22C883.939 277.903 883.741 278.879 883.741 280.148C883.741 281.343 883.944 282.282 884.349 282.964C884.755 283.636 885.475 283.972 886.509 283.972ZM892.723 285.172V274.868H894.515L897.779 281.54L901.027 274.868H902.819V285.172H901.091V277.7L898.307 283.396H897.251L894.451 277.7V285.172H892.723ZM904.193 286.324C905.046 285.588 905.654 284.714 906.017 283.7C906.379 282.676 906.561 281.551 906.561 280.324C906.561 279.098 906.379 277.978 906.017 276.964C905.654 275.94 905.046 275.06 904.193 274.324H906.177C906.699 274.794 907.115 275.359 907.425 276.02C907.745 276.671 907.974 277.37 908.113 278.116C908.251 278.852 908.321 279.588 908.321 280.324C908.321 281.06 908.251 281.802 908.113 282.548C907.974 283.295 907.745 283.994 907.425 284.644C907.115 285.295 906.699 285.855 906.177 286.324H904.193Z" fill="#E0E0E0"/>
<path d="M540.203 18.134C540.203 12.1011 545.094 7.21045 551.127 7.21045C557.16 7.21045 562.05 12.1011 562.05 18.134C562.05 24.167 557.16 29.0576 551.127 29.0576C545.094 29.0576 540.203 24.167 540.203 18.134ZM559.319 18.134C559.319 13.6093 555.651 9.94135 551.127 9.94135C546.602 9.94135 542.934 13.6093 542.934 18.134C542.934 22.6587 546.602 26.3267 551.127 26.3267C555.651 26.3267 559.319 22.6587 559.319 18.134Z" fill="white"/>
<path d="M521.933 116.026L551.127 86.8319V29.0564" stroke="white" stroke-width="2"/>
<path d="M582.023 25.2104V12.0504L579.027 12.4984V8.10245L587.287 6.89845V25.2104H582.023ZM597.878 25.4904C595.806 25.4904 594.135 25.1358 592.866 24.4264C591.615 23.6984 590.7 22.6438 590.122 21.2624C589.543 19.8811 589.254 18.1918 589.254 16.1944C589.254 14.1971 589.543 12.5078 590.122 11.1264C590.7 9.74512 591.615 8.69978 592.866 7.99045C594.135 7.26245 595.806 6.89845 597.878 6.89845C600.976 6.89845 603.188 7.70111 604.514 9.30645C605.839 10.8931 606.502 13.1891 606.502 16.1944C606.502 19.1811 605.839 21.4771 604.514 23.0824C603.188 24.6878 600.976 25.4904 597.878 25.4904ZM597.878 21.0104C599.091 21.0104 599.931 20.6091 600.398 19.8064C600.883 18.9851 601.126 17.7811 601.126 16.1944C601.126 14.5891 600.883 13.3851 600.398 12.5824C599.931 11.7798 599.091 11.3784 597.878 11.3784C596.664 11.3784 595.815 11.7798 595.33 12.5824C594.863 13.3851 594.63 14.5891 594.63 16.1944C594.63 17.7811 594.863 18.9851 595.33 19.8064C595.815 20.6091 596.664 21.0104 597.878 21.0104ZM612.158 15.5784C610.777 15.5784 609.722 15.1958 608.994 14.4304C608.266 13.6464 607.902 12.6478 607.902 11.4344C607.902 10.0344 608.266 8.93312 608.994 8.13045C609.722 7.30911 610.777 6.89845 612.158 6.89845C613.558 6.89845 614.622 7.30911 615.35 8.13045C616.078 8.93312 616.442 10.0344 616.442 11.4344C616.442 12.6478 616.078 13.6464 615.35 14.4304C614.622 15.1958 613.558 15.5784 612.158 15.5784ZM610.814 25.2104L620.222 7.17845H625.206L615.77 25.2104H610.814ZM612.158 12.8344C612.681 12.8344 613.054 12.7038 613.278 12.4424C613.502 12.1624 613.614 11.7891 613.614 11.3224C613.614 10.2024 613.129 9.64245 612.158 9.64245C611.654 9.64245 611.29 9.77311 611.066 10.0344C610.842 10.2958 610.73 10.7251 610.73 11.3224C610.73 11.7891 610.842 12.1624 611.066 12.4424C611.29 12.7038 611.654 12.8344 612.158 12.8344ZM623.862 25.4904C622.481 25.4904 621.426 25.1078 620.698 24.3424C619.97 23.5584 619.606 22.5598 619.606 21.3464C619.606 19.9651 619.97 18.8731 620.698 18.0704C621.426 17.2491 622.481 16.8384 623.862 16.8384C625.262 16.8384 626.326 17.2491 627.054 18.0704C627.782 18.8731 628.146 19.9651 628.146 21.3464C628.146 22.5598 627.782 23.5584 627.054 24.3424C626.326 25.1078 625.262 25.4904 623.862 25.4904ZM623.862 22.7744C624.385 22.7744 624.758 22.6438 624.982 22.3824C625.206 22.1024 625.318 21.7291 625.318 21.2624C625.318 20.1424 624.833 19.5824 623.862 19.5824C623.358 19.5824 622.994 19.7131 622.77 19.9744C622.546 20.2358 622.434 20.6651 622.434 21.2624C622.434 21.7291 622.546 22.1024 622.77 22.3824C622.994 22.6438 623.358 22.7744 623.862 22.7744Z" fill="#ACF780"/>
<path d="M585.695 55.2104V46.2664H582.399V44.9064H590.719V46.2664H587.439V55.2104H585.695ZM594.441 55.3704C593.118 55.3704 592.094 55.0451 591.369 54.3944C590.643 53.7438 590.281 52.7464 590.281 51.4024C590.281 50.1864 590.59 49.2264 591.209 48.5224C591.827 47.8184 592.766 47.4664 594.025 47.4664C595.177 47.4664 596.041 47.7704 596.617 48.3784C597.203 48.9758 597.497 49.7491 597.497 50.6984V52.1064H591.945C592.03 52.8424 592.297 53.3491 592.745 53.6264C593.193 53.9038 593.875 54.0424 594.793 54.0424C595.177 54.0424 595.571 54.0051 595.977 53.9304C596.382 53.8558 596.734 53.7598 597.033 53.6424V54.9224C596.691 55.0718 596.297 55.1838 595.849 55.2584C595.411 55.3331 594.942 55.3704 594.441 55.3704ZM591.945 50.9704H595.961V50.4424C595.961 49.9198 595.817 49.5144 595.529 49.2264C595.241 48.9278 594.755 48.7784 594.073 48.7784C593.262 48.7784 592.702 48.9544 592.393 49.3064C592.094 49.6584 591.945 50.2131 591.945 50.9704ZM601.562 55.3704C601.082 55.3704 600.634 55.2851 600.218 55.1144C599.813 54.9438 599.488 54.6878 599.242 54.3464C598.997 53.9944 598.874 53.5624 598.874 53.0504C598.874 52.3251 599.12 51.7438 599.61 51.3064C600.112 50.8584 600.88 50.6344 601.914 50.6344H604.346V50.2984C604.346 49.9358 604.288 49.6478 604.17 49.4344C604.064 49.2211 603.861 49.0664 603.562 48.9704C603.274 48.8744 602.848 48.8264 602.282 48.8264C601.386 48.8264 600.549 48.9598 599.77 49.2264V47.9304C600.112 47.7918 600.528 47.6798 601.018 47.5944C601.509 47.5091 602.037 47.4664 602.602 47.4664C603.712 47.4664 604.554 47.6904 605.13 48.1384C605.717 48.5864 606.01 49.3171 606.01 50.3304V55.2104H604.522L604.41 54.4424C604.101 54.7411 603.717 54.9704 603.258 55.1304C602.81 55.2904 602.245 55.3704 601.562 55.3704ZM602.026 54.1224C602.549 54.1224 603.002 54.0371 603.386 53.8664C603.781 53.6851 604.101 53.4451 604.346 53.1464V51.8184H601.946C601.434 51.8184 601.061 51.9198 600.826 52.1224C600.602 52.3144 600.49 52.6131 600.49 53.0184C600.49 53.4131 600.624 53.6958 600.89 53.8664C601.157 54.0371 601.536 54.1224 602.026 54.1224ZM607.944 55.2104V47.6264H609.544L609.624 48.4264C609.998 48.1278 610.408 47.8931 610.856 47.7224C611.304 47.5518 611.784 47.4664 612.296 47.4664C612.84 47.4664 613.262 47.5571 613.56 47.7384C613.87 47.9091 614.104 48.1491 614.264 48.4584C614.616 48.1704 615.022 47.9358 615.48 47.7544C615.939 47.5624 616.488 47.4664 617.128 47.4664C618.003 47.4664 618.648 47.6904 619.064 48.1384C619.48 48.5864 619.688 49.2744 619.688 50.2024V55.2104H617.976V50.3784C617.976 49.7918 617.854 49.3811 617.608 49.1464C617.363 48.9118 616.963 48.7944 616.408 48.7944C616.046 48.7944 615.699 48.8584 615.368 48.9864C615.048 49.1144 614.771 49.3064 614.536 49.5624C614.568 49.6798 614.59 49.8024 614.6 49.9304C614.611 50.0584 614.616 50.1971 614.616 50.3464V55.2104H613V50.3944C613 49.8398 612.904 49.4344 612.712 49.1784C612.52 48.9224 612.158 48.7944 611.624 48.7944C611.251 48.7944 610.894 48.8851 610.552 49.0664C610.222 49.2371 609.923 49.4451 609.656 49.6904V55.2104H607.944ZM627.175 56.3624C626.652 55.8931 626.231 55.3331 625.911 54.6824C625.591 54.0318 625.362 53.3331 625.223 52.5864C625.084 51.8398 625.015 51.0984 625.015 50.3624C625.015 49.6264 625.084 48.8904 625.223 48.1544C625.362 47.4078 625.591 46.7091 625.911 46.0584C626.231 45.3971 626.652 44.8318 627.175 44.3624H629.143C628.3 45.0984 627.692 45.9784 627.319 47.0024C626.956 48.0158 626.775 49.1358 626.775 50.3624C626.775 51.5891 626.956 52.7144 627.319 53.7384C627.692 54.7518 628.3 55.6264 629.143 56.3624H627.175ZM631.882 55.2104V46.4424L630.218 46.7304V45.2744L633.61 44.7464V55.2104H631.882ZM639.856 55.4984C638.768 55.4984 637.893 55.2904 637.232 54.8744C636.57 54.4478 636.085 53.8398 635.776 53.0504C635.477 52.2504 635.328 51.2958 635.328 50.1864C635.328 49.0344 635.472 48.0531 635.76 47.2424C636.058 46.4318 636.538 45.8131 637.2 45.3864C637.861 44.9598 638.746 44.7464 639.856 44.7464C640.965 44.7464 641.845 44.9598 642.496 45.3864C643.157 45.8131 643.632 46.4318 643.92 47.2424C644.218 48.0531 644.368 49.0344 644.368 50.1864C644.368 51.2958 644.218 52.2504 643.92 53.0504C643.621 53.8398 643.141 54.4478 642.48 54.8744C641.818 55.2904 640.944 55.4984 639.856 55.4984ZM639.856 54.0104C640.88 54.0104 641.594 53.6744 642 53.0024C642.405 52.3198 642.608 51.3811 642.608 50.1864C642.608 48.9171 642.41 47.9411 642.016 47.2584C641.621 46.5758 640.901 46.2344 639.856 46.2344C638.81 46.2344 638.085 46.5758 637.68 47.2584C637.285 47.9411 637.088 48.9171 637.088 50.1864C637.088 51.3811 637.29 52.3198 637.696 53.0024C638.101 53.6744 638.821 54.0104 639.856 54.0104ZM650.277 55.4984C649.189 55.4984 648.315 55.2904 647.653 54.8744C646.992 54.4478 646.507 53.8398 646.197 53.0504C645.899 52.2504 645.749 51.2958 645.749 50.1864C645.749 49.0344 645.893 48.0531 646.181 47.2424C646.48 46.4318 646.96 45.8131 647.621 45.3864C648.283 44.9598 649.168 44.7464 650.277 44.7464C651.387 44.7464 652.267 44.9598 652.917 45.3864C653.579 45.8131 654.053 46.4318 654.341 47.2424C654.64 48.0531 654.789 49.0344 654.789 50.1864C654.789 51.2958 654.64 52.2504 654.341 53.0504C654.043 53.8398 653.563 54.4478 652.901 54.8744C652.24 55.2904 651.365 55.4984 650.277 55.4984ZM650.277 54.0104C651.301 54.0104 652.016 53.6744 652.421 53.0024C652.827 52.3198 653.029 51.3811 653.029 50.1864C653.029 48.9171 652.832 47.9411 652.437 47.2584C652.043 46.5758 651.323 46.2344 650.277 46.2344C649.232 46.2344 648.507 46.5758 648.101 47.2584C647.707 47.9411 647.509 48.9171 647.509 50.1864C647.509 51.3811 647.712 52.3198 648.117 53.0024C648.523 53.6744 649.243 54.0104 650.277 54.0104ZM656.491 55.2104V44.9064H658.283L661.547 51.5784L664.795 44.9064H666.587V55.2104H664.859V47.7384L662.075 53.4344H661.019L658.219 47.7384V55.2104H656.491ZM667.961 56.3624C668.814 55.6264 669.422 54.7518 669.785 53.7384C670.147 52.7144 670.329 51.5891 670.329 50.3624C670.329 49.1358 670.147 48.0158 669.785 47.0024C669.422 45.9784 668.814 45.0984 667.961 44.3624H669.945C670.467 44.8318 670.883 45.3971 671.193 46.0584C671.513 46.7091 671.742 47.4078 671.881 48.1544C672.019 48.8904 672.089 49.6264 672.089 50.3624C672.089 51.0984 672.019 51.8398 671.881 52.5864C671.742 53.3331 671.513 54.0318 671.193 54.6824C670.883 55.3331 670.467 55.8931 669.945 56.3624H667.961Z" fill="#E0E0E0"/>
</svg>
